<svg width="399" height="599" viewBox="0 0 399 599" fill="none" xmlns="http://www.w3.org/2000/svg">
<rect x="2.5" y="2.50002" width="394.003" height="593.504" rx="13.5" fill="#8C6239" stroke="#4B2E05" style="fill:#8C6239;fill:color(display-p3 0.5490 0.3843 0.2235);fill-opacity:1;stroke:#4B2E05;stroke:color(display-p3 0.2941 0.1804 0.0196);stroke-opacity:1;" stroke-width="5"/>
<g clip-path="url(#clip0_43_2)">
<g filter="url(#filter0_d_43_2)">
<rect x="-19.788" y="556.701" width="626" height="177.644" transform="rotate(-40.2974 -19.788 556.701)" fill="url(#paint0_linear_43_2)" style=""/>
</g>
<g filter="url(#filter1_d_43_2)">
<rect x="-152.792" y="258.349" width="626" height="77.1477" transform="rotate(-40.2974 -152.792 258.349)" fill="#603503" style="fill:#603503;fill:color(display-p3 0.3765 0.2078 0.0118);fill-opacity:1;"/>
</g>
<g filter="url(#filter2_d_43_2)">
<rect x="107.392" y="706.681" width="626" height="17" transform="rotate(-40.2974 107.392 706.681)" fill="#603503" style="fill:#603503;fill:color(display-p3 0.3765 0.2078 0.0118);fill-opacity:1;"/>
</g>
<g filter="url(#filter3_d_43_2)">
<rect x="-90.6077" y="331.681" width="626" height="17" transform="rotate(-40.2974 -90.6077 331.681)" fill="#603503" style="fill:#603503;fill:color(display-p3 0.3765 0.2078 0.0118);fill-opacity:1;"/>
</g>
<g filter="url(#filter4_d_43_2)">
<path d="M115.79 78.7384C124.172 78.6439 128.482 78.8212 131.822 80.8807C138.418 84.9481 138.609 91.7974 134.557 98.3678C132.771 101.264 131.614 103.131 126.232 106.334C126.232 106.334 121.53 107.66 117.401 115.003C112.655 122.057 113.613 126.876 113.613 126.876C113.167 133.122 112.029 134.909 110.245 137.802C106.194 144.372 99.9895 147.283 93.3899 143.213C90.05 141.154 87.9634 137.379 84.2792 129.846C84.2792 129.846 76.7036 115.23 74.8996 105.499C73.6013 98.4718 77.6724 91.9032 77.6724 91.9032L78.9237 89.874C78.9237 89.874 83.1387 82.9969 89.8306 81.2861C99.4209 78.8486 115.791 78.7395 115.79 78.7384ZM60.3618 101.985C64.5977 95.1158 59.3149 84.1732 48.5642 77.5438C37.8135 70.9144 25.664 71.1074 21.4281 77.9767C17.1921 84.846 22.4749 95.7886 33.2256 102.418C43.9763 109.047 56.1259 108.854 60.3618 101.985ZM71.8652 125.53C72.6394 119.019 65.027 112.731 54.8602 111.487C44.6934 110.243 35.8226 114.51 35.0466 121.02C34.2705 127.529 41.886 133.817 52.0517 135.063C62.2185 136.307 71.0873 132.038 71.8652 125.53ZM78.1927 73.0692C82.4287 66.1999 77.147 55.2554 66.3963 48.626C55.6456 41.9966 43.4949 42.1915 39.259 49.0608C35.0231 55.93 40.3059 66.8727 51.0566 73.5021C61.8073 80.1315 73.9568 79.9385 78.1927 73.0692ZM83.8334 41.8996C78.3624 45.5165 78.5335 55.357 84.2121 63.8838C89.8907 72.4106 98.9273 76.3892 104.398 72.7722C109.867 69.1542 109.696 59.3136 104.02 50.788C98.3428 42.2623 89.3043 38.2826 83.8334 41.8996Z" fill="#E4B381" style="fill:#E4B381;fill:color(display-p3 0.8941 0.7020 0.5059);fill-opacity:1;"/>
<path d="M375.459 248.992C380.119 255.961 382.325 259.668 382.426 263.59C382.624 271.337 376.991 275.239 369.275 275.436C365.873 275.523 363.677 275.575 358.054 272.817C358.054 272.817 354.374 269.604 345.968 270.158C337.467 270.038 333.955 273.474 333.955 273.474C328.479 276.514 326.361 276.537 322.964 276.624C315.248 276.821 309.419 273.216 309.221 265.465C309.121 261.542 311.142 257.732 315.438 250.53C315.438 250.53 323.54 236.198 330.703 229.37C335.879 224.443 343.605 224.263 343.605 224.263L345.988 224.202C345.988 224.202 354.051 223.974 359.14 228.644C366.422 235.344 375.459 248.995 375.459 248.992ZM325.702 215.275C333.77 215.069 340.047 204.665 339.725 192.039C339.402 179.412 332.601 169.343 324.534 169.549C316.466 169.755 310.188 180.159 310.511 192.785C310.833 205.411 317.634 215.481 325.702 215.275ZM312.269 237.775C318.145 234.866 319.251 225.054 314.738 215.86C310.224 206.665 301.803 201.568 295.927 204.475C290.051 207.382 288.947 217.196 293.458 226.39C297.972 235.585 306.393 240.68 312.269 237.775ZM359.662 214.407C367.73 214.201 374.01 203.797 373.687 191.171C373.365 178.545 366.562 168.475 358.494 168.681C350.427 168.887 344.149 179.291 344.472 191.917C344.794 204.544 351.595 214.613 359.662 214.407ZM388.849 202.099C382.83 199.493 374.683 205.014 370.644 214.429C366.606 223.844 368.212 233.587 374.231 236.192C380.25 238.795 388.398 233.275 392.436 223.862C396.474 214.449 394.868 204.704 388.849 202.099Z" fill="#E4B381" style="fill:#E4B381;fill:color(display-p3 0.8941 0.7020 0.5059);fill-opacity:1;"/>
<path d="M71.3503 381.565C78.4299 386.054 81.947 388.552 83.6248 392.099C86.9383 399.104 83.3653 404.951 76.3874 408.251C73.3116 409.706 71.3242 410.642 65.0659 410.393C65.0659 410.393 60.4009 408.942 52.9373 412.849C45.1132 416.176 43.2904 420.739 43.2904 420.739C39.5118 425.733 37.5842 426.611 34.5123 428.064C27.5344 431.365 20.746 430.424 17.4306 423.415C15.7528 419.868 16.0607 415.566 17.0771 407.243C17.0771 407.243 18.6915 390.859 22.4819 381.717C25.2234 375.118 32.2167 371.829 32.2167 371.829L34.3717 370.81C34.3717 370.81 41.6537 367.341 48.1969 369.554C57.5661 372.737 71.3513 381.567 71.3503 381.565ZM12.2082 370.848C19.5035 367.397 21.038 355.343 15.6372 343.926C10.2365 332.508 -0.0553189 326.049 -7.35063 329.499C-14.6459 332.95 -16.1804 345.004 -10.7797 356.421C-5.37894 367.839 4.91287 374.299 12.2082 370.848ZM9.02103 396.858C13.2184 391.821 10.2629 382.4 2.41678 375.816C-5.42932 369.232 -15.1926 367.976 -19.391 373.01C-23.5893 378.045 -20.6308 387.467 -12.7867 394.052C-4.94062 400.636 4.82177 401.891 9.02103 396.858ZM42.9175 356.322C50.2128 352.871 51.7492 340.816 46.3485 329.399C40.9478 317.981 30.654 311.522 23.3587 314.973C16.0634 318.424 14.5289 330.478 19.9296 341.895C25.3304 353.313 35.6222 359.772 42.9175 356.322ZM64.6343 333.262C58.076 333.313 52.8563 341.657 52.9704 351.901C53.0844 362.145 58.4927 370.406 65.051 370.355C71.6083 370.302 76.828 361.958 76.7149 351.716C76.6018 341.474 71.1925 333.211 64.6343 333.262Z" fill="#E4B381" style="fill:#E4B381;fill:color(display-p3 0.8941 0.7020 0.5059);fill-opacity:1;"/>
<path d="M374.252 561.104C380.05 567.158 382.866 570.426 383.646 574.271C385.185 581.866 380.315 586.687 372.75 588.22C369.415 588.896 367.261 589.328 361.245 587.587C361.245 587.587 357.063 585.061 348.881 587.066C340.488 588.423 337.625 592.416 337.625 592.416C332.76 596.359 330.678 596.75 327.348 597.425C319.783 598.958 313.417 596.419 311.877 588.82C311.098 584.974 312.427 580.871 315.408 573.033C315.408 573.033 320.9 557.513 326.77 549.546C331.012 543.795 338.59 542.277 338.59 542.277L340.926 541.804C340.926 541.804 348.827 540.18 354.65 543.896C362.984 549.231 374.252 561.106 374.252 561.104ZM319.399 536.532C327.308 534.929 331.686 523.594 329.177 511.215C326.668 498.836 318.224 490.099 310.314 491.702C302.405 493.305 298.027 504.64 300.536 517.019C303.044 529.398 311.489 538.135 319.399 536.532ZM310.074 561.021C315.356 557.137 314.743 547.282 308.702 539.01C302.662 530.738 293.484 527.179 288.202 531.062C282.919 534.945 283.535 544.801 289.573 553.073C295.614 561.345 304.791 564.902 310.074 561.021ZM352.694 529.785C360.603 528.182 364.983 516.846 362.474 504.467C359.965 492.088 351.518 483.352 343.609 484.955C335.699 486.558 331.322 497.893 333.831 510.272C336.339 522.65 344.784 531.387 352.694 529.785ZM379.302 512.598C372.922 511.077 365.856 517.927 363.513 527.901C361.17 537.874 364.442 547.189 370.821 548.711C377.2 550.23 384.267 543.38 386.61 533.409C388.954 523.438 385.681 514.12 379.302 512.598Z" fill="#E4B381" style="fill:#E4B381;fill:color(display-p3 0.8941 0.7020 0.5059);fill-opacity:1;"/>
<path d="M225.859 421.17C225.825 429.553 225.582 433.86 223.471 437.168C219.303 443.701 212.452 443.786 205.945 439.634C203.076 437.804 201.227 436.619 198.107 431.188C198.107 431.188 196.853 426.466 189.575 422.226C182.594 417.372 177.761 418.256 177.761 418.256C171.522 417.714 169.753 416.549 166.888 414.721C160.381 410.569 157.565 404.321 161.735 397.785C163.846 394.477 167.652 392.448 175.24 388.88C175.24 388.88 189.971 381.529 199.728 379.875C206.775 378.684 213.28 382.856 213.28 382.856L215.29 384.138C215.29 384.138 222.102 388.458 223.71 395.175C226 404.802 225.858 421.172 225.859 421.17ZM203.465 365.393C210.268 369.733 221.291 364.619 228.084 353.971C234.877 343.323 234.871 331.172 228.067 326.831C221.264 322.491 210.241 327.605 203.448 338.253C196.654 348.901 196.661 361.052 203.465 365.393ZM179.746 376.534C186.244 377.408 192.648 369.892 194.048 359.746C195.448 349.599 191.317 340.664 184.82 339.789C178.323 338.913 171.92 346.431 170.518 356.576C169.118 366.723 173.251 375.656 179.746 376.534ZM232.104 383.665C238.908 388.005 249.932 382.892 256.725 372.244C263.519 361.596 263.51 349.444 256.706 345.103C249.903 340.763 238.88 345.877 232.087 356.525C225.294 367.173 225.3 379.324 232.104 383.665ZM263.184 389.782C259.651 384.257 249.809 384.277 241.196 389.824C232.583 395.371 228.467 404.346 231.999 409.872C235.533 415.396 245.375 415.375 253.987 409.83C262.598 404.285 266.716 395.308 263.184 389.782Z" fill="#E4B381" style="fill:#E4B381;fill:color(display-p3 0.8941 0.7020 0.5059);fill-opacity:1;"/>
<path d="M416.35 31.5652C423.43 36.0543 426.947 38.552 428.625 42.099C431.938 49.104 428.365 54.9506 421.387 58.2513C418.312 59.7063 416.324 60.6415 410.066 60.393C410.066 60.393 405.401 58.9424 397.937 62.8485C390.113 66.1763 388.29 70.7394 388.29 70.7394C384.512 75.7332 382.584 76.611 379.512 78.0641C372.534 81.3648 365.746 80.4243 362.431 73.4153C360.753 69.8683 361.061 65.5662 362.077 57.2426C362.077 57.2426 363.691 40.8587 367.482 31.7173C370.223 25.1177 377.217 21.8291 377.217 21.8291L379.372 20.8097C379.372 20.8097 386.654 17.3409 393.197 19.5535C402.566 22.7367 416.351 31.5671 416.35 31.5652ZM357.208 20.8478C364.503 17.397 366.038 5.34314 360.637 -6.07432C355.236 -17.4918 344.945 -23.9515 337.649 -20.5006C330.354 -17.0498 328.82 -4.99596 334.22 6.42151C339.621 17.839 349.913 24.2987 357.208 20.8478ZM354.021 46.8582C358.218 41.8214 355.263 32.4004 347.417 25.8163C339.571 19.2321 329.807 17.9756 325.609 23.0104C321.411 28.0452 324.369 37.4672 332.213 44.0523C340.059 50.6364 349.822 51.891 354.021 46.8582ZM387.917 6.32158C395.213 2.87072 396.749 -9.18403 391.348 -20.6015C385.948 -32.019 375.654 -38.4777 368.359 -35.0269C361.063 -31.576 359.529 -19.5222 364.93 -8.10473C370.33 3.31273 380.622 9.77243 387.917 6.32158ZM409.634 -16.738C403.076 -16.6871 397.856 -8.34322 397.97 1.90079C398.084 12.1448 403.493 20.4055 410.051 20.3547C416.608 20.3018 421.828 11.9579 421.715 1.71589C421.602 -8.52614 416.193 -16.7889 409.634 -16.738Z" fill="#E4B381" style="fill:#E4B381;fill:color(display-p3 0.8941 0.7020 0.5059);fill-opacity:1;"/>
<path d="M278.084 87.1307C281.372 90.2388 282.978 91.9246 283.502 93.9768C284.536 98.0298 282.04 100.759 278.003 101.789C276.223 102.243 275.074 102.534 271.783 101.757C271.783 101.757 269.461 100.508 265.104 101.809C260.616 102.766 259.18 104.995 259.18 104.995C256.663 107.252 255.551 107.519 253.774 107.972C249.737 109.002 246.237 107.804 245.202 103.749C244.679 101.696 245.285 99.4487 246.682 95.1432C246.682 95.1432 249.225 86.6287 252.175 82.1758C254.308 78.9616 258.352 77.9397 258.352 77.9397L259.599 77.6217C259.599 77.6217 263.815 76.5341 267.054 78.3807C271.69 81.0327 278.084 87.1319 278.084 87.1307ZM247.852 75.3581C252.073 74.2814 254.128 68.0529 252.443 61.447C250.758 54.841 245.971 50.3579 241.75 51.4346C237.529 52.5113 235.474 58.7398 237.159 65.3457C238.844 71.9517 243.631 76.4348 247.852 75.3581ZM243.483 88.811C246.226 86.5748 245.631 81.2787 242.152 76.9816C238.673 72.6846 233.63 71.0128 230.887 73.2479C228.143 75.4829 228.74 80.7799 232.218 85.0772C235.696 89.3743 240.74 91.0449 243.483 88.811ZM265.62 70.8258C269.841 69.7492 271.897 63.5204 270.212 56.9144C268.527 50.3085 263.738 45.8257 259.517 46.9023C255.297 47.979 253.241 54.2075 254.926 60.8135C256.612 67.4194 261.399 71.9025 265.62 70.8258ZM279.502 60.8457C276.022 60.1969 272.397 64.08 271.402 69.5194C270.407 74.9589 272.421 79.893 275.901 80.5418C279.381 81.1895 283.006 77.3064 284.002 71.8681C284.997 66.4298 282.983 61.4945 279.502 60.8457Z" fill="#E4B381" style="fill:#E4B381;fill:color(display-p3 0.8941 0.7020 0.5059);fill-opacity:1;"/>
<path d="M177.635 74.5824C177.326 77.293 177.094 78.6777 176.294 79.6728C174.713 81.6379 172.494 81.4219 170.536 79.8473C169.673 79.1532 169.117 78.704 168.301 76.8361C168.301 76.8361 168.063 75.264 165.86 73.6332C163.774 71.8146 162.179 71.9288 162.179 71.9288C160.18 71.5315 159.649 71.0917 158.787 70.3985C156.83 68.8239 156.141 66.7025 157.723 64.7363C158.523 63.7412 159.827 63.2204 162.409 62.3359C162.409 62.3359 167.436 60.4819 170.651 60.2937C172.973 60.1592 174.929 61.74 174.929 61.74L175.533 62.2264C175.533 62.2264 177.583 63.8661 177.865 66.0964C178.263 69.2921 177.635 74.5829 177.635 74.5824ZM172.375 55.7415C174.421 57.3878 178.169 56.1253 180.745 52.9223C183.322 49.7193 183.752 45.7881 181.705 44.1419C179.659 42.4957 175.911 43.7582 173.335 46.9611C170.758 50.1641 170.328 54.0953 172.375 55.7415ZM164.305 58.5021C166.376 59.0159 168.715 56.8125 169.529 53.5799C170.343 50.3472 169.324 47.3097 167.254 46.7953C165.183 46.281 162.844 48.4854 162.03 51.7176C161.216 54.9502 162.235 57.9872 164.305 58.5021ZM180.99 62.6713C183.036 64.3175 186.785 63.0555 189.361 59.8525C191.937 56.6495 192.367 52.7179 190.32 51.0717C188.274 49.4254 184.526 50.6879 181.95 53.8909C179.373 57.0939 178.943 61.0251 180.99 62.6713ZM190.826 65.7559C189.88 63.8426 186.696 63.4991 183.712 64.9873C180.728 66.4755 179.077 69.2324 180.024 71.1456C180.97 73.0583 184.155 73.4019 187.138 71.9142C190.121 70.4266 191.773 67.6691 190.826 65.7559Z" fill="#E4B381" style="fill:#E4B381;fill:color(display-p3 0.8941 0.7020 0.5059);fill-opacity:1;"/>
<path d="M137.636 196.582C137.326 199.293 137.094 200.678 136.294 201.673C134.713 203.638 132.494 203.422 130.536 201.847C129.673 201.153 129.117 200.704 128.301 198.836C128.301 198.836 128.064 197.264 125.86 195.633C123.774 193.815 122.179 193.929 122.179 193.929C120.18 193.532 119.649 193.092 118.787 192.399C116.83 190.824 116.141 188.702 117.723 186.736C118.523 185.741 119.827 185.22 122.409 184.336C122.409 184.336 127.436 182.482 130.651 182.294C132.973 182.159 134.929 183.74 134.929 183.74L135.534 184.226C135.534 184.226 137.583 185.866 137.865 188.096C138.263 191.292 137.635 196.583 137.636 196.582ZM132.375 177.742C134.421 179.388 138.169 178.125 140.745 174.922C143.322 171.719 143.752 167.788 141.705 166.142C139.659 164.496 135.911 165.758 133.335 168.961C130.758 172.164 130.328 176.095 132.375 177.742ZM124.305 180.502C126.377 181.016 128.716 178.813 129.529 175.58C130.343 172.347 129.325 169.31 127.254 168.795C125.183 168.281 122.844 170.485 122.03 173.718C121.216 176.95 122.235 179.987 124.305 180.502ZM140.99 184.671C143.036 186.318 146.785 185.055 149.361 181.853C151.937 178.65 152.367 174.718 150.32 173.072C148.274 171.425 144.526 172.688 141.95 175.891C139.373 179.094 138.943 183.025 140.99 184.671ZM150.827 187.756C149.88 185.843 146.696 185.499 143.712 186.987C140.728 188.475 139.077 191.232 140.024 193.146C140.97 195.058 144.155 195.402 147.138 193.914C150.121 192.427 151.773 189.669 150.827 187.756Z" fill="#E4B381" style="fill:#E4B381;fill:color(display-p3 0.8941 0.7020 0.5059);fill-opacity:1;"/>
<path d="M135.636 329.582C135.326 332.293 135.094 333.678 134.294 334.673C132.713 336.638 130.494 336.422 128.536 334.847C127.673 334.153 127.117 333.704 126.301 331.836C126.301 331.836 126.064 330.264 123.86 328.633C121.774 326.815 120.179 326.929 120.179 326.929C118.18 326.532 117.649 326.092 116.787 325.399C114.83 323.824 114.141 321.702 115.723 319.736C116.523 318.741 117.827 318.22 120.409 317.336C120.409 317.336 125.436 315.482 128.651 315.294C130.973 315.159 132.929 316.74 132.929 316.74L133.534 317.226C133.534 317.226 135.583 318.866 135.865 321.096C136.263 324.292 135.635 329.583 135.636 329.582ZM130.375 310.742C132.421 312.388 136.169 311.125 138.745 307.922C141.322 304.719 141.752 300.788 139.705 299.142C137.659 297.496 133.911 298.758 131.335 301.961C128.758 305.164 128.328 309.095 130.375 310.742ZM122.305 313.502C124.377 314.016 126.716 311.813 127.529 308.58C128.343 305.347 127.325 302.31 125.254 301.795C123.183 301.281 120.844 303.485 120.03 306.718C119.216 309.95 120.235 312.987 122.305 313.502ZM138.99 317.671C141.036 319.318 144.785 318.055 147.361 314.853C149.937 311.65 150.367 307.718 148.32 306.072C146.274 304.425 142.526 305.688 139.95 308.891C137.373 312.094 136.943 316.025 138.99 317.671ZM148.827 320.756C147.88 318.843 144.696 318.499 141.712 319.987C138.728 321.475 137.077 324.232 138.024 326.146C138.97 328.058 142.155 328.402 145.138 326.914C148.121 325.427 149.773 322.669 148.827 320.756Z" fill="#E4B381" style="fill:#E4B381;fill:color(display-p3 0.8941 0.7020 0.5059);fill-opacity:1;"/>
<path d="M273.635 297.582C273.326 300.293 273.094 301.678 272.294 302.673C270.713 304.638 268.494 304.422 266.536 302.847C265.673 302.153 265.117 301.704 264.301 299.836C264.301 299.836 264.063 298.264 261.86 296.633C259.774 294.815 258.179 294.929 258.179 294.929C256.18 294.532 255.649 294.092 254.787 293.399C252.83 291.824 252.141 289.702 253.723 287.736C254.523 286.741 255.827 286.22 258.409 285.336C258.409 285.336 263.436 283.482 266.651 283.294C268.973 283.159 270.929 284.74 270.929 284.74L271.533 285.226C271.533 285.226 273.583 286.866 273.865 289.096C274.263 292.292 273.635 297.583 273.635 297.582ZM268.375 278.742C270.421 280.388 274.169 279.125 276.745 275.922C279.322 272.719 279.752 268.788 277.705 267.142C275.659 265.496 271.911 266.758 269.335 269.961C266.758 273.164 266.328 277.095 268.375 278.742ZM260.305 281.502C262.376 282.016 264.715 279.813 265.529 276.58C266.343 273.347 265.324 270.31 263.254 269.795C261.183 269.281 258.844 271.485 258.03 274.718C257.216 277.95 258.235 280.987 260.305 281.502ZM276.99 285.671C279.036 287.318 282.785 286.055 285.361 282.853C287.937 279.65 288.367 275.718 286.32 274.072C284.274 272.425 280.526 273.688 277.95 276.891C275.373 280.094 274.943 284.025 276.99 285.671ZM286.826 288.756C285.88 286.843 282.696 286.499 279.712 287.987C276.728 289.475 275.077 292.232 276.024 294.146C276.97 296.058 280.155 296.402 283.138 294.914C286.121 293.427 287.773 290.669 286.826 288.756Z" fill="#E4B381" style="fill:#E4B381;fill:color(display-p3 0.8941 0.7020 0.5059);fill-opacity:1;"/>
<path d="M323.635 128.582C323.326 131.293 323.094 132.678 322.294 133.673C320.713 135.638 318.494 135.422 316.536 133.847C315.673 133.153 315.117 132.704 314.301 130.836C314.301 130.836 314.063 129.264 311.86 127.633C309.774 125.815 308.179 125.929 308.179 125.929C306.18 125.532 305.649 125.092 304.787 124.399C302.83 122.824 302.141 120.702 303.723 118.736C304.523 117.741 305.827 117.22 308.409 116.336C308.409 116.336 313.436 114.482 316.651 114.294C318.973 114.159 320.929 115.74 320.929 115.74L321.533 116.226C321.533 116.226 323.583 117.866 323.865 120.096C324.263 123.292 323.635 128.583 323.635 128.582ZM318.375 109.742C320.421 111.388 324.169 110.125 326.745 106.922C329.322 103.719 329.752 99.7881 327.705 98.1419C325.659 96.4957 321.911 97.7582 319.335 100.961C316.758 104.164 316.328 108.095 318.375 109.742ZM310.305 112.502C312.376 113.016 314.715 110.813 315.529 107.58C316.343 104.347 315.324 101.31 313.254 100.795C311.183 100.281 308.844 102.485 308.03 105.718C307.216 108.95 308.235 111.987 310.305 112.502ZM326.99 116.671C329.036 118.318 332.785 117.055 335.361 113.853C337.937 110.65 338.367 106.718 336.32 105.072C334.274 103.425 330.526 104.688 327.95 107.891C325.373 111.094 324.943 115.025 326.99 116.671ZM336.826 119.756C335.88 117.843 332.696 117.499 329.712 118.987C326.728 120.475 325.077 123.232 326.024 125.146C326.97 127.058 330.155 127.402 333.138 125.914C336.121 124.427 337.773 121.669 336.826 119.756Z" fill="#E4B381" style="fill:#E4B381;fill:color(display-p3 0.8941 0.7020 0.5059);fill-opacity:1;"/>
<path d="M280.635 467.582C280.326 470.293 280.094 471.678 279.294 472.673C277.713 474.638 275.494 474.422 273.536 472.847C272.673 472.153 272.117 471.704 271.301 469.836C271.301 469.836 271.063 468.264 268.86 466.633C266.774 464.815 265.179 464.929 265.179 464.929C263.18 464.532 262.649 464.092 261.787 463.399C259.83 461.824 259.141 459.702 260.723 457.736C261.523 456.741 262.827 456.22 265.409 455.336C265.409 455.336 270.436 453.482 273.651 453.294C275.973 453.159 277.929 454.74 277.929 454.74L278.533 455.226C278.533 455.226 280.583 456.866 280.865 459.096C281.263 462.292 280.635 467.583 280.635 467.582ZM275.375 448.742C277.421 450.388 281.169 449.125 283.745 445.922C286.322 442.719 286.752 438.788 284.705 437.142C282.659 435.496 278.911 436.758 276.335 439.961C273.758 443.164 273.328 447.095 275.375 448.742ZM267.305 451.502C269.376 452.016 271.715 449.813 272.529 446.58C273.343 443.347 272.324 440.31 270.254 439.795C268.183 439.281 265.844 441.485 265.03 444.718C264.216 447.95 265.235 450.987 267.305 451.502ZM283.99 455.671C286.036 457.318 289.785 456.055 292.361 452.853C294.937 449.65 295.367 445.718 293.32 444.072C291.274 442.425 287.526 443.688 284.95 446.891C282.373 450.094 281.943 454.025 283.99 455.671ZM293.826 458.756C292.88 456.843 289.696 456.499 286.712 457.987C283.728 459.475 282.077 462.232 283.024 464.146C283.97 466.058 287.155 466.402 290.138 464.914C293.121 463.427 294.773 460.669 293.826 458.756Z" fill="#E4B381" style="fill:#E4B381;fill:color(display-p3 0.8941 0.7020 0.5059);fill-opacity:1;"/>
<path d="M127.636 462.582C127.326 465.293 127.094 466.678 126.294 467.673C124.713 469.638 122.494 469.422 120.536 467.847C119.673 467.153 119.117 466.704 118.301 464.836C118.301 464.836 118.064 463.264 115.86 461.633C113.774 459.815 112.179 459.929 112.179 459.929C110.18 459.532 109.649 459.092 108.787 458.399C106.83 456.824 106.141 454.702 107.723 452.736C108.523 451.741 109.827 451.22 112.409 450.336C112.409 450.336 117.436 448.482 120.651 448.294C122.973 448.159 124.929 449.74 124.929 449.74L125.534 450.226C125.534 450.226 127.583 451.866 127.865 454.096C128.263 457.292 127.635 462.583 127.636 462.582ZM122.375 443.742C124.421 445.388 128.169 444.125 130.745 440.922C133.322 437.719 133.752 433.788 131.705 432.142C129.659 430.496 125.911 431.758 123.335 434.961C120.758 438.164 120.328 442.095 122.375 443.742ZM114.305 446.502C116.377 447.016 118.716 444.813 119.529 441.58C120.343 438.347 119.325 435.31 117.254 434.795C115.183 434.281 112.844 436.485 112.03 439.718C111.216 442.95 112.235 445.987 114.305 446.502ZM130.99 450.671C133.036 452.318 136.785 451.055 139.361 447.853C141.937 444.65 142.367 440.718 140.32 439.072C138.274 437.425 134.526 438.688 131.95 441.891C129.373 445.094 128.943 449.025 130.99 450.671ZM140.827 453.756C139.88 451.843 136.696 451.499 133.712 452.987C130.728 454.475 129.077 457.232 130.024 459.146C130.97 461.058 134.155 461.402 137.138 459.914C140.121 458.427 141.773 455.669 140.827 453.756Z" fill="#E4B381" style="fill:#E4B381;fill:color(display-p3 0.8941 0.7020 0.5059);fill-opacity:1;"/>
<path d="M94.4968 253.043C98.7546 254.574 100.901 255.475 102.203 257.146C104.773 260.446 103.579 263.947 100.292 266.507C98.8432 267.636 97.9064 268.362 94.5805 268.968C94.5805 268.968 91.9523 268.753 88.4806 271.69C84.7509 274.364 84.328 276.982 84.328 276.982C82.9255 280.058 82.0134 280.747 80.5663 281.874C77.2792 284.434 73.5925 284.738 71.0209 281.436C69.7194 279.765 69.3751 277.463 68.9305 272.959C68.9305 272.959 67.8519 264.138 68.7723 258.876C69.4394 255.077 72.736 252.521 72.736 252.521L73.7512 251.731C73.7512 251.731 77.1788 249.046 80.886 249.441C86.1962 250.015 94.4975 253.043 94.4968 253.043ZM62.0806 254.36C65.5173 251.684 64.9064 245.153 60.7172 239.775C56.5279 234.396 50.346 232.205 46.9093 234.882C43.4726 237.559 44.0835 244.089 48.2728 249.467C52.462 254.846 58.644 257.037 62.0806 254.36ZM63.4641 268.437C65.0822 265.29 62.4161 260.675 57.5078 258.13C52.5995 255.586 47.3085 256.073 45.6897 259.22C44.071 262.366 46.7387 266.981 51.6461 269.527C56.5544 272.071 61.8446 271.583 63.4641 268.437ZM76.5471 243.093C79.9837 240.416 79.3738 233.885 75.1845 228.506C70.9953 223.128 64.8124 220.938 61.3758 223.614C57.9391 226.291 58.55 232.821 62.7392 238.2C66.9284 243.578 73.1104 245.769 76.5471 243.093ZM85.2718 228.389C81.8231 229.188 80.056 234.197 81.3221 239.58C82.5883 244.963 86.4099 248.678 89.8586 247.879C93.3065 247.079 95.0737 242.069 93.8083 236.687C92.5428 231.305 88.7205 227.59 85.2718 228.389Z" fill="#E4B381" style="fill:#E4B381;fill:color(display-p3 0.8941 0.7020 0.5059);fill-opacity:1;"/>
<path d="M224.369 232.338C225.097 236.803 225.351 239.118 224.522 241.067C222.885 244.916 219.246 245.572 215.411 243.941C213.721 243.222 212.631 242.756 210.487 240.143C210.487 240.143 209.398 237.741 205.146 236.132C200.997 234.169 198.503 235.071 198.503 235.071C195.133 235.338 194.088 234.875 192.4 234.157C188.565 232.527 186.51 229.451 188.148 225.6C188.977 223.651 190.822 222.232 194.544 219.656C194.544 219.656 201.732 214.431 206.779 212.681C210.424 211.42 214.259 213.061 214.259 213.061L215.443 213.564C215.443 213.564 219.454 215.257 220.909 218.69C222.985 223.611 224.368 232.339 224.369 232.338ZM207.478 204.638C211.486 206.343 216.899 202.638 219.567 196.365C222.235 190.091 221.149 183.623 217.14 181.918C213.132 180.213 207.719 183.918 205.051 190.192C202.383 196.465 203.469 202.933 207.478 204.638ZM195.843 212.682C199.38 212.569 202.12 207.997 201.962 202.471C201.803 196.945 198.808 192.556 195.271 192.668C191.735 192.781 188.995 197.354 189.153 202.88C189.311 208.406 192.307 212.794 195.843 212.682ZM224.352 211.815C228.361 213.519 233.774 209.815 236.442 203.541C239.11 197.268 238.023 190.799 234.014 189.094C230.006 187.389 224.594 191.094 221.925 197.368C219.257 203.641 220.343 210.11 224.352 211.815ZM241.443 212.303C239.07 209.676 233.832 210.563 229.741 214.284C225.65 218.004 224.258 223.149 226.631 225.776C229.004 228.402 234.242 227.514 238.332 223.795C242.423 220.075 243.816 214.93 241.443 212.303Z" fill="#E4B381" style="fill:#E4B381;fill:color(display-p3 0.8941 0.7020 0.5059);fill-opacity:1;"/>
<path d="M364.598 407.647C367.044 411.454 368.198 413.476 368.213 415.594C368.244 419.776 365.166 421.827 360.999 421.857C359.163 421.87 357.977 421.877 354.97 420.333C354.97 420.333 353.015 418.563 348.473 418.779C343.887 418.63 341.957 420.45 341.957 420.45C338.972 422.036 337.829 422.028 335.995 422.041C331.828 422.072 328.719 420.068 328.688 415.883C328.673 413.766 329.801 411.729 332.19 407.885C332.19 407.885 336.704 400.23 340.637 396.616C343.479 394.008 347.65 393.987 347.65 393.987L348.937 393.978C348.937 393.978 353.291 393.934 355.991 396.504C359.855 400.192 364.598 407.648 364.598 407.647ZM338.077 388.96C342.433 388.928 345.924 383.375 345.874 376.558C345.825 369.741 342.254 364.239 337.898 364.271C333.542 364.302 330.051 369.855 330.101 376.673C330.15 383.49 333.721 388.991 338.077 388.96ZM330.606 400.97C333.806 399.458 334.499 394.174 332.154 389.167C329.809 384.161 325.314 381.327 322.115 382.838C318.915 384.349 318.222 389.634 320.566 394.64C322.912 399.647 327.406 402.48 330.606 400.97ZM356.413 388.826C360.769 388.795 364.261 383.242 364.212 376.425C364.162 369.607 360.59 364.106 356.234 364.137C351.878 364.169 348.387 369.722 348.437 376.539C348.487 383.357 352.058 388.858 356.413 388.826ZM372.286 382.472C369.064 381.006 364.612 383.905 362.34 388.946C360.068 393.988 360.839 399.261 364.061 400.727C367.283 402.191 371.735 399.292 374.007 394.252C376.279 389.212 375.509 383.937 372.286 382.472Z" fill="#E4B381" style="fill:#E4B381;fill:color(display-p3 0.8941 0.7020 0.5059);fill-opacity:1;"/>
<path d="M94.9024 530.594C99.1931 532.03 101.359 532.884 102.697 534.526C105.34 537.768 104.224 541.294 100.994 543.927C99.5704 545.087 98.6499 545.834 95.3382 546.514C95.3382 546.514 92.7059 546.357 89.3 549.369C85.6303 552.125 85.2654 554.752 85.2654 554.752C83.9312 557.858 83.0346 558.567 81.6128 559.726C78.3831 562.358 74.7041 562.744 72.06 559.5C70.7219 557.858 70.3268 555.564 69.7827 551.07C69.7827 551.07 68.5093 542.276 69.3132 536.995C69.8961 533.182 73.1354 530.554 73.1354 530.554L74.1329 529.741C74.1329 529.741 77.5002 526.981 81.2153 527.294C86.5369 527.75 94.9032 530.595 94.9024 530.594ZM62.5233 532.628C65.8999 529.876 65.1448 523.361 60.8377 518.076C56.5306 512.791 50.3017 510.738 46.925 513.49C43.5484 516.242 44.3035 522.757 48.6106 528.041C52.9177 533.326 59.1467 535.38 62.5233 532.628ZM64.2177 546.671C65.7658 543.488 62.9983 538.933 58.0349 536.498C53.0716 534.063 47.7927 534.667 46.2439 537.849C44.6951 541.03 47.4642 545.585 52.4267 548.021C57.39 550.456 62.6682 549.851 64.2177 546.671ZM76.7371 521.043C80.1137 518.291 79.3595 511.775 75.0524 506.49C70.7453 501.206 64.5154 499.153 61.1388 501.905C57.7622 504.657 58.5173 511.172 62.8244 516.457C67.1315 521.741 73.3605 523.795 76.7371 521.043ZM85.1346 506.15C81.7044 507.025 80.0484 512.072 81.4333 517.426C82.8182 522.779 86.7209 526.409 90.1511 525.534C93.5806 524.658 95.2366 519.61 93.8524 514.258C92.4683 508.905 88.5648 505.275 85.1346 506.15Z" fill="#E4B381" style="fill:#E4B381;fill:color(display-p3 0.8941 0.7020 0.5059);fill-opacity:1;"/>
<path d="M215.972 531.975C216.396 536.48 216.493 538.806 215.533 540.695C213.639 544.424 209.963 544.832 206.249 542.945C204.611 542.113 203.555 541.574 201.593 538.821C201.593 538.821 200.67 536.351 196.536 534.457C192.53 532.218 189.98 532.948 189.98 532.948C186.6 532.986 185.589 532.454 183.953 531.623C180.238 529.736 178.396 526.529 180.291 522.797C181.25 520.909 183.188 519.618 187.076 517.301C187.076 517.301 194.601 512.575 199.755 511.171C203.478 510.16 207.192 512.057 207.192 512.057L208.34 512.64C208.34 512.64 212.227 514.601 213.445 518.125C215.184 523.175 215.971 531.976 215.972 531.975ZM200.998 503.194C204.882 505.167 210.533 501.838 213.62 495.76C216.708 489.681 216.063 483.154 212.179 481.181C208.295 479.209 202.644 482.538 199.557 488.616C196.469 494.695 197.114 501.222 200.998 503.194ZM188.845 510.431C192.382 510.557 195.425 506.182 195.642 500.658C195.858 495.134 193.168 490.552 189.631 490.424C186.095 490.297 183.052 494.673 182.835 500.197C182.618 505.722 185.309 510.302 188.845 510.431ZM217.347 511.498C221.231 513.471 226.883 510.142 229.97 504.064C233.058 497.986 232.412 491.458 228.528 489.485C224.644 487.513 218.993 490.842 215.906 496.92C212.818 502.999 213.463 509.526 217.347 511.498ZM234.365 513.144C232.176 510.362 226.89 510.893 222.556 514.327C218.222 517.762 216.485 522.8 218.674 525.582C220.864 528.362 226.15 527.832 230.483 524.399C234.816 520.965 236.554 515.926 234.365 513.144Z" fill="#E4B381" style="fill:#E4B381;fill:color(display-p3 0.8941 0.7020 0.5059);fill-opacity:1;"/>
</g>
</g>
<defs>
<filter id="filter0_d_43_2" x="-23.788" y="151.833" width="600.341" height="548.357" filterUnits="userSpaceOnUse" color-interpolation-filters="sRGB">
<feFlood flood-opacity="0" result="BackgroundImageFix"/>
<feColorMatrix in="SourceAlpha" type="matrix" values="0 0 0 0 0 0 0 0 0 0 0 0 0 0 0 0 0 0 127 0" result="hardAlpha"/>
<feOffset dy="4"/>
<feGaussianBlur stdDeviation="2"/>
<feComposite in2="hardAlpha" operator="out"/>
<feColorMatrix type="matrix" values="0 0 0 0 0 0 0 0 0 0 0 0 0 0 0 0 0 0 0.25 0"/>
<feBlend mode="normal" in2="BackgroundImageFix" result="effect1_dropShadow_43_2"/>
<feBlend mode="normal" in="SourceGraphic" in2="effect1_dropShadow_43_2" result="shape"/>
</filter>
<filter id="filter1_d_43_2" x="-156.792" y="-146.519" width="535.345" height="471.709" filterUnits="userSpaceOnUse" color-interpolation-filters="sRGB">
<feFlood flood-opacity="0" result="BackgroundImageFix"/>
<feColorMatrix in="SourceAlpha" type="matrix" values="0 0 0 0 0 0 0 0 0 0 0 0 0 0 0 0 0 0 127 0" result="hardAlpha"/>
<feOffset dy="4"/>
<feGaussianBlur stdDeviation="2"/>
<feComposite in2="hardAlpha" operator="out"/>
<feColorMatrix type="matrix" values="0 0 0 0 0 0 0 0 0 0 0 0 0 0 0 0 0 0 0.25 0"/>
<feBlend mode="normal" in2="BackgroundImageFix" result="effect1_dropShadow_43_2"/>
<feBlend mode="normal" in="SourceGraphic" in2="effect1_dropShadow_43_2" result="shape"/>
</filter>
<filter id="filter2_d_43_2" x="103.392" y="301.813" width="496.444" height="425.834" filterUnits="userSpaceOnUse" color-interpolation-filters="sRGB">
<feFlood flood-opacity="0" result="BackgroundImageFix"/>
<feColorMatrix in="SourceAlpha" type="matrix" values="0 0 0 0 0 0 0 0 0 0 0 0 0 0 0 0 0 0 127 0" result="hardAlpha"/>
<feOffset dy="4"/>
<feGaussianBlur stdDeviation="2"/>
<feComposite in2="hardAlpha" operator="out"/>
<feColorMatrix type="matrix" values="0 0 0 0 0 0 0 0 0 0 0 0 0 0 0 0 0 0 0.25 0"/>
<feBlend mode="normal" in2="BackgroundImageFix" result="effect1_dropShadow_43_2"/>
<feBlend mode="normal" in="SourceGraphic" in2="effect1_dropShadow_43_2" result="shape"/>
</filter>
<filter id="filter3_d_43_2" x="-94.6077" y="-73.1874" width="496.444" height="425.834" filterUnits="userSpaceOnUse" color-interpolation-filters="sRGB">
<feFlood flood-opacity="0" result="BackgroundImageFix"/>
<feColorMatrix in="SourceAlpha" type="matrix" values="0 0 0 0 0 0 0 0 0 0 0 0 0 0 0 0 0 0 127 0" result="hardAlpha"/>
<feOffset dy="4"/>
<feGaussianBlur stdDeviation="2"/>
<feComposite in2="hardAlpha" operator="out"/>
<feColorMatrix type="matrix" values="0 0 0 0 0 0 0 0 0 0 0 0 0 0 0 0 0 0 0.25 0"/>
<feBlend mode="normal" in2="BackgroundImageFix" result="effect1_dropShadow_43_2"/>
<feBlend mode="normal" in="SourceGraphic" in2="effect1_dropShadow_43_2" result="shape"/>
</filter>
<filter id="filter4_d_43_2" x="-43" y="-50" width="492.766" height="661.524" filterUnits="userSpaceOnUse" color-interpolation-filters="sRGB">
<feFlood flood-opacity="0" result="BackgroundImageFix"/>
<feColorMatrix in="SourceAlpha" type="matrix" values="0 0 0 0 0 0 0 0 0 0 0 0 0 0 0 0 0 0 127 0" result="hardAlpha"/>
<feOffset dy="4"/>
<feGaussianBlur stdDeviation="2"/>
<feComposite in2="hardAlpha" operator="out"/>
<feColorMatrix type="matrix" values="0 0 0 0 0 0 0 0 0 0 0 0 0 0 0 0 0 0 0.25 0"/>
<feBlend mode="normal" in2="BackgroundImageFix" result="effect1_dropShadow_43_2"/>
<feBlend mode="normal" in="SourceGraphic" in2="effect1_dropShadow_43_2" result="shape"/>
</filter>
<linearGradient id="paint0_linear_43_2" x1="-19.788" y1="645.523" x2="606.212" y2="645.523" gradientUnits="userSpaceOnUse">
<stop stop-color="#E4B381" style="stop-color:#E4B381;stop-color:color(display-p3 0.8941 0.7020 0.5059);stop-opacity:1;"/>
<stop offset="1" stop-color="#603503" style="stop-color:#603503;stop-color:color(display-p3 0.3765 0.2078 0.0118);stop-opacity:1;"/>
</linearGradient>
<clipPath id="clip0_43_2">
<rect x="14" y="21" width="371" height="557" rx="8" fill="white" style="fill:white;fill-opacity:1;"/>
</clipPath>
</defs>
</svg>
