<svg width="373" height="266" viewBox="0 0 373 266" fill="none" xmlns="http://www.w3.org/2000/svg">
<path fill-rule="evenodd" clip-rule="evenodd" d="M268.734 2.75C268.206 4.262 266.42 6.4 264.763 7.5C257.078 12.603 258.9 28.482 267.415 30.619C271.893 31.743 277.379 29.4 279.186 25.592C282.308 19.015 280.849 10.574 276.047 7.428L273.605 5.828L275.701 3.875C278.787 1 278.283 0 273.745 0C270.224 0 269.567 0.36 268.734 2.75ZM201.438 2.948C200.716 3.802 199.545 5.97 198.834 7.766C197.323 11.583 195.945 10.974 193.816 5.548C192.519 2.243 192.127 2 188.083 2H183.742L184.02 16.25L184.297 30.5H187.797H191.297L191.613 24L191.929 17.5L193.892 21.75C196.242 26.838 198.073 27.141 199.926 22.75L201.297 19.5L201.797 25L202.297 30.5H205.797H209.297L209.574 16.363L209.851 2.225L206.3 1.811C203.911 1.532 202.32 1.904 201.438 2.948ZM51.317 4.25C51.032 5.488 50.686 10.325 50.548 15L50.297 23.5L47.084 23.179C44.325 22.902 43.777 23.23 43.207 25.502C42.283 29.183 44.025 30.5 49.819 30.5C53.572 30.5 55.269 29.972 56.964 28.278C58.955 26.286 59.23 24.807 59.615 14.028L60.044 2H55.939C52.503 2 51.751 2.366 51.317 4.25ZM66.248 7.131C62.876 8.769 61.672 11.815 61.672 18.706C61.672 26.29 63.8011 29.535 69.4741 30.599C78.6791 32.326 84.4471 22.9 80.7221 12.215C78.8351 6.801 71.924 4.373 66.248 7.131ZM87.164 7.772C83.987 10.346 82.797 13.322 82.801 18.684C82.806 25.209 85.5861 29.682 90.1711 30.542C98.3471 32.076 103.252 27.992 102.604 20.19L102.297 16.5H97.2971C92.5861 16.5 92.279 16.659 91.981 19.25C91.755 21.214 92.112 22 93.231 22C94.844 22 95.2991 23.164 94.1391 24.325C92.6801 25.784 90.7971 22.502 90.7971 18.5C90.7971 13.951 92.6521 11.255 94.5051 13.108C96.1121 14.715 100.229 13.752 100.624 11.676C101.574 6.697 91.94 3.903 87.164 7.772ZM107.142 8.379C104.708 10.474 104.335 11.583 104.03 17.629C103.723 23.731 103.96 24.836 106.146 27.5C108.304 30.131 109.245 30.5 113.789 30.5C118.226 30.5 119.317 30.097 121.384 27.694C123.401 25.349 123.797 23.819 123.797 18.367C123.797 12.493 123.507 11.556 120.874 8.923C117.054 5.104 111.219 4.873 107.142 8.379ZM134.464 6.667C134.097 7.033 133.797 12.425 133.797 18.648V29.962L136.368 30.607C140.773 31.713 148.075 30.177 150.648 27.604C155.512 22.739 154.354 10.374 148.763 7.483C145.889 5.996 135.715 5.416 134.464 6.667ZM158.752 10.195C158.118 12.563 156.541 17.842 155.248 21.927C153.955 26.011 153.126 29.724 153.406 30.177C154.653 32.193 161.797 30.675 161.797 28.393C161.797 26.142 166.48 26.679 167.087 29C167.469 30.462 168.451 31 170.735 31C172.454 31 174.061 30.438 174.308 29.75C174.554 29.063 173.246 23.55 171.4 17.5L168.044 6.5L163.974 6.195C159.947 5.893 159.891 5.936 158.752 10.195ZM213.23 7.314C212.953 8.037 212.854 13.55 213.011 19.564L213.297 30.5H220.797H228.297L228.61 27.25C228.923 24.012 228.906 24 224.36 24C221.851 24 219.797 23.55 219.797 23C219.797 22.45 221.372 22 223.297 22C226.63 22 226.797 21.833 226.797 18.5C226.797 15.167 226.63 15 223.297 15C221.372 15 219.797 14.55 219.797 14C219.797 13.45 221.822 13 224.297 13C228.773 13 228.797 12.981 228.797 9.5V6H221.266C215.967 6 213.585 6.39 213.23 7.314ZM232.016 18.25C232.29 30.184 232.357 30.508 234.602 30.827C238.045 31.315 239.789 29.259 239.861 24.628L239.925 20.5L241.542 23.75C243.52 27.724 246.018 27.922 247.843 24.25L249.21 21.5L249.753 26C250.282 30.373 250.396 30.5 253.797 30.5H257.297L257.578 18.191L257.86 5.882L253.578 6.191C249.635 6.476 249.139 6.834 247.297 10.732C246.197 13.06 245.021 14.973 244.683 14.982C244.345 14.992 243.295 12.975 242.35 10.5C240.669 6.099 240.534 6 236.184 6H231.735L232.016 18.25ZM283.016 18.25L283.297 30.5H286.297C289.068 30.5 289.322 30.2 289.619 26.56L289.94 22.62L292.143 26.56C293.898 29.697 295.004 30.564 297.572 30.813C301.272 31.173 301.727 29.698 299.34 25.083C298.077 22.641 298.073 22.014 299.308 20.383C301.654 17.285 301.167 11.28 298.342 8.455C296.234 6.346 294.961 6 289.312 6H282.735L283.016 18.25ZM303.797 18.563V31.127L307.047 30.813L310.297 30.5L310.578 18.25L310.859 6H307.328H303.797V18.563ZM318.378 7.189C318.156 7.91 316.584 12.886 314.886 18.247C311.137 30.078 311.088 31 314.215 31C317.667 31 319.797 30.005 319.797 28.393C319.797 26.113 324.563 26.687 325.315 29.057C325.824 30.662 326.664 31.046 329.132 30.807C333.446 30.389 333.499 28.564 329.549 16.5L326.276 6.5L322.528 6.189C320.086 5.987 318.64 6.335 318.378 7.189ZM74.091 18.383C74.217 22.843 72.5701 24.886 70.3391 23.035C68.5001 21.508 68.2751 14.922 70.0041 13.193C71.8461 11.351 73.968 14.046 74.091 18.383ZM116.797 18.569C116.797 21.907 114.625 24.63 112.841 23.527C111.336 22.597 111.513 13.273 113.047 12.698C114.91 12 116.797 14.955 116.797 18.569ZM272.595 18.375C272.342 22.734 271.998 23.5 270.297 23.5C268.653 23.5 268.242 22.73 267.986 19.176C267.649 14.488 269.077 11.786 271.418 12.685C272.511 13.104 272.816 14.579 272.595 18.375ZM145.847 15.093C147.626 18.417 145.583 23.923 142.547 23.985C142.135 23.993 141.797 21.525 141.797 18.5C141.797 12.56 143.655 10.997 145.847 15.093ZM293.366 14.112C293.744 14.723 293.433 15.616 292.675 16.096C290.535 17.452 289.797 17.171 289.797 15C289.797 12.865 292.223 12.262 293.366 14.112ZM164.48 20.188C164.161 20.985 163.924 20.748 163.876 19.583C163.833 18.529 164.069 17.939 164.401 18.271C164.733 18.603 164.769 19.466 164.48 20.188ZM19.297 39.681C8.17405 42.179 1.79705 48.91 1.79705 58.152C1.79705 66.11 6.80405 71.666 20.797 79.234C25.517 81.787 26.777 84.114 24.757 86.548C22.463 89.313 16.847 88.071 12.099 83.75L9.90105 81.749L6.06405 84.788C3.95405 86.46 1.60705 88.987 0.848048 90.404C-0.370952 92.682 -0.319952 93.214 1.28905 94.992C7.13505 101.451 21.956 104.004 31.028 100.115C41.203 95.754 45.219 84.671 40.192 74.829C38.605 71.722 35.544 69.403 26.692 64.601C19.367 60.628 17.792 58.823 19.403 56.25C21.162 53.441 25.4411 53.522 28.8981 56.431C30.5771 57.844 32.253 58.995 32.624 58.989C34.248 58.963 41.797 50.663 41.797 48.903C41.797 46.297 33.998 41.423 27.649 40.062C24.926 39.478 22.383 39.052 21.998 39.116C21.612 39.18 20.397 39.434 19.297 39.681ZM266.464 40.396C254.487 43.709 248.791 53.556 248.803 70.932C248.813 86.983 252.794 95.489 262.617 100.448C265.038 101.67 268.102 102.066 273.936 101.912C281.926 101.701 281.939 101.705 283.852 104.85C284.906 106.583 286.182 108 286.688 108C288.405 108 296.046 103.507 296.548 102.202C296.823 101.488 295.896 99.285 294.489 97.307L291.929 93.71L294.506 88.782C297.724 82.628 298.797 68.425 296.767 58.858C293.777 44.767 280.313 36.565 266.464 40.396ZM57.3181 42.25C57.0891 42.938 55.498 48.9 53.783 55.5C50.796 66.998 47.715 78.531 45.638 86C45.102 87.925 44.319 91.11 43.896 93.077C43.474 95.044 42.79 97.202 42.377 97.871C40.814 100.4 43.882 102 50.297 102C57.412 102 58.264 101.359 59.272 95.25L59.973 91H66.757H73.5411L74.2131 95.2C75.1851 101.278 76.1491 102 83.2971 102C91.4231 102 92.261 101.027 90.271 93.906C88.388 87.17 87.856 85.25 82.398 65.5C79.967 56.7 77.4691 47.587 76.8481 45.25L75.72 41H66.7271C60.4221 41 57.6101 41.374 57.3181 42.25ZM94.7661 42.206C94.3741 58.432 94.994 100.597 95.634 101.237C96.113 101.716 99.159 101.972 102.401 101.804L108.297 101.5L108.797 86.573L109.297 71.646L113.977 81.823C118.058 90.699 118.971 92 121.116 92C123.239 92 124.27 90.597 128.646 81.75L133.717 71.5L134.007 86.5L134.297 101.5L139.231 101.812C141.944 101.984 145.207 101.863 146.481 101.543L148.797 100.962V70.939V40.916L141.047 41.208L133.297 41.5L127.321 53.818L121.345 66.135L115.321 53.818L109.297 41.5L102.047 41.206C96.6431 40.987 94.7891 41.242 94.7661 42.206ZM155.032 71.25L155.297 101.5L167.932 101.779C183.073 102.113 190.024 100.191 194.394 94.462C199.649 87.572 198.554 75.508 192.303 71.412C190.137 69.993 190.023 69.631 191.33 68.324C195.745 63.909 196.58 53.312 192.918 48.17C188.937 42.579 183.514 41 168.293 41H154.768L155.032 71.25ZM212.97 44.214C212.416 46.021 209.668 56.5 206.863 67.5C204.058 78.5 201.286 89.075 200.704 91C200.121 92.925 199.566 96.075 199.471 98L199.297 101.5H206.789H214.282L215.776 96.25L217.271 91H223.406H229.541L231.001 96.25L232.462 101.5H239.879H247.297L247.199 98C247.115 94.992 239.079 64.055 233.951 47L232.297 41.5L223.137 41.214L213.976 40.927L212.97 44.214ZM302.404 42.582C301.339 45.357 301.756 84.308 302.896 88.5C305.242 97.13 312.988 101.943 324.587 101.978C334.881 102.009 341.939 98.052 344.73 90.685C345.375 88.982 345.797 78.608 345.797 64.435V41H338.297C334.172 41 330.781 41.337 330.762 41.75C330.743 42.163 330.63 51.791 330.512 63.146C330.317 81.869 330.12 83.988 328.392 85.896C326.047 88.486 322.653 88.604 320.452 86.171C319.028 84.597 318.797 81.543 318.797 64.253C318.797 53.204 318.524 43.452 318.19 42.582C317.306 40.278 303.288 40.278 302.404 42.582ZM352.464 41.667C352.097 42.033 351.797 55.218 351.797 70.967C351.797 91.904 352.12 99.923 352.997 100.8C354.486 102.289 366.43 102.403 367.336 100.936C368.112 99.681 368.821 44.226 368.086 42.31C367.555 40.927 353.772 40.359 352.464 41.667ZM177.574 54.557C182.213 57.805 179.36 64 173.226 64H169.797V59.167C169.797 56.508 170.097 54.033 170.464 53.667C171.636 52.494 175.282 52.951 177.574 54.557ZM278.207 56.319C280.906 59.019 282.39 68.862 281.247 76.488L280.552 81.119L278.418 79.113C276.394 77.212 276.111 77.192 272.943 78.726C269.038 80.618 268.033 82.546 269.625 85.095C270.533 86.549 270.49 86.819 269.418 86.408C266.859 85.426 265.797 80.877 265.797 70.903C265.797 60.871 267.106 55.844 270.026 54.669C272.911 53.508 276.024 54.136 278.207 56.319ZM224.765 67.75C225.376 70.912 226.092 74.513 226.355 75.75C226.781 77.748 226.441 78 223.316 78C221.169 78 219.796 77.513 219.794 76.75C219.791 75.15 222.971 62 223.361 62C223.523 62 224.155 64.588 224.765 67.75ZM70.743 77.25C70.772 77.662 69.2221 78 67.2971 78C63.1361 78 62.9141 76.811 65.4601 68.154L67.122 62.5L68.9051 69.5C69.8861 73.35 70.713 76.838 70.743 77.25ZM179.452 78.128C181.272 79.639 181.158 85.455 179.279 87.015C178.444 87.708 176.081 88.326 174.029 88.388L170.297 88.5L169.989 83.095C169.783 79.462 170.111 77.403 170.989 76.818C172.546 75.78 177.557 76.556 179.452 78.128ZM3.03005 137.25L3.29705 163.5L13.56 163.785C29.69 164.233 35.072 161.9 39.413 152.579C41.346 148.426 41.778 145.859 41.782 138.5C41.788 124.058 38.922 117.496 30.797 113.352C26.872 111.349 24.794 111.053 14.53 111.028L2.76405 111L3.03005 137.25ZM54.472 111.75C53.991 112.564 50.344 126.162 48.237 135C46.886 140.665 45.468 145.896 43.63 152C43.051 153.925 42.356 157.412 42.086 159.75L41.596 164H48.137C55.107 164 55.722 163.613 56.744 158.587C57.345 155.629 57.604 155.488 62.954 155.204L68.536 154.908L69.6811 159.454L70.826 164H77.942H85.0591L84.4711 160.379C83.7981 156.229 73.108 116.644 71.744 113.25C70.913 111.181 70.2 111 62.877 111C58.498 111 54.716 111.338 54.472 111.75ZM101.03 137.25L101.297 163.5L112.797 163.799C127.324 164.178 129.94 163.674 134.169 159.686C138.938 155.187 140.503 149.137 138.353 143.507C137.464 141.181 135.659 138.729 134.297 138L131.843 136.687L134.254 134.452C138.396 130.613 138.775 122.948 135.099 117.338C131.856 112.388 127.086 111 113.32 111H100.764L101.03 137.25ZM143.03 137.225L143.297 163.5L159.047 163.775L174.797 164.051V158.025V152H165.797H156.797V148.046V144.091L163.547 143.796L170.297 143.5L170.593 137.879C170.931 131.469 170.364 131.039 161.547 131.014L156.797 131V127.5V124L164.547 123.985C168.809 123.976 172.885 123.596 173.605 123.14C174.487 122.58 174.812 120.553 174.605 116.905L174.297 111.5L158.53 111.225L142.764 110.949L143.03 137.225ZM179.248 112.268C178.98 112.965 178.882 124.778 179.029 138.518L179.297 163.5L186.047 163.796L192.797 164.091V137.546V111H186.266C181.913 111 179.572 111.423 179.248 112.268ZM198.248 112.268C197.98 112.965 197.882 124.778 198.029 138.518L198.297 163.5L205.547 163.794L212.797 164.088V155.544C212.797 146.457 214.149 144.348 216.512 149.75C217.173 151.262 218.852 155.088 220.243 158.25L222.772 164H229.816C234.741 164 237.013 163.601 237.368 162.675C237.648 161.946 235.868 157.592 233.414 152.998L228.951 144.646L232.257 141.34C234.88 138.717 235.702 136.913 236.241 132.602C237.411 123.237 234.911 117.476 227.797 113.14C224.708 111.258 222.798 111.007 211.516 111.004C202.113 111.001 198.606 111.335 198.248 112.268ZM253.319 112.25C253.091 112.938 251.543 118.9 249.879 125.5C248.215 132.1 245.499 142.45 243.843 148.5C239.469 164.482 239.347 164 247.778 164C254.578 164 254.775 163.929 255.371 161.25C256.81 154.783 256.55 155 262.864 155C268.566 155 268.797 155.1 268.797 157.566C268.797 162.964 270.252 164 277.832 164C284.202 164 284.797 163.824 284.797 161.937C284.797 160.802 282.544 151.914 279.79 142.187C277.036 132.459 274.283 122.7 273.674 120.5C270.891 110.46 271.547 111 262.144 111C256.304 111 253.607 111.382 253.319 112.25ZM288.284 113.25C287.981 114.487 287.86 126.3 288.015 139.5L288.297 163.5L300.797 163.484C314.257 163.467 317.015 162.691 322.266 157.44C326.423 153.283 327.797 148.639 327.797 138.744C327.797 128.058 326.578 123.403 322.476 118.427C317.617 112.532 313.125 111.047 300.066 111.022C289.241 111.001 288.815 111.081 288.284 113.25ZM340.922 116.214C340.222 119.121 339.278 122.625 338.824 124C338.37 125.375 336.994 130.325 335.766 135C334.537 139.675 332.428 147.461 331.078 152.303C329.728 157.145 328.874 161.757 329.179 162.553C329.585 163.611 331.486 164 336.247 164C342.536 164 342.78 163.906 343.371 161.25C344.807 154.799 344.571 155 350.672 155H356.413L357.355 159.25L358.297 163.5L365.547 163.794C370.538 163.996 372.797 163.727 372.797 162.931C372.797 161.474 364.447 129.813 360.025 114.5C359.159 111.503 359.15 111.5 350.676 111.214L342.194 110.928L340.922 116.214ZM122.547 124.245C125.726 126.788 122.048 132 117.074 132C115.048 132 114.797 131.513 114.797 127.583C114.797 124.98 115.31 122.964 116.047 122.672C117.553 122.077 120.827 122.869 122.547 124.245ZM22.2801 123.994C25.5651 125.242 27.799 130.4 27.791 136.718C27.78 146.426 24.601 152 19.074 152C16.809 152 16.797 151.922 16.797 137.5C16.797 121.813 16.7631 121.896 22.2801 123.994ZM219.968 124.655C222.044 126.534 222.419 131.978 220.597 133.8C219.937 134.46 217.912 135 216.097 135H212.797V129C212.797 123.164 212.87 123 215.468 123C216.937 123 218.962 123.745 219.968 124.655ZM309.397 124.765C311.833 126.392 312.797 130.281 312.797 138.482C312.797 146.512 312.618 147.262 310.151 149.548C308.696 150.896 306.446 152 305.151 152H302.797V138V124L305.547 124.015C307.059 124.024 308.792 124.361 309.397 124.765ZM264.753 140.75C264.789 142.568 264.249 143 261.943 143H259.09L260.443 137.782C261.188 134.912 261.827 131.65 261.864 130.532C261.949 127.982 264.693 137.688 264.753 140.75ZM64.2541 134.75C64.6281 136.813 65.1771 139.512 65.4741 140.75C65.9491 142.729 65.626 143 62.798 143C60.179 143 59.704 142.684 60.237 141.295C60.597 140.358 61.156 137.658 61.48 135.295C62.206 130.002 63.3531 129.777 64.2541 134.75ZM352.124 134.883C352.441 136.469 352.996 138.944 353.357 140.383C353.96 142.785 353.759 143 350.905 143C347.429 143 347.339 142.703 348.916 136.443C350.208 131.311 351.303 130.779 352.124 134.883ZM122.215 143.607C123.085 143.941 123.797 145.254 123.797 146.525C123.797 150.913 122.783 152 118.69 152H114.797V147.5C114.797 143.195 114.923 143 117.715 143C119.32 143 121.345 143.273 122.215 143.607ZM64.0581 175.164C61.5781 175.719 58.363 177.487 56.308 179.425C53.447 182.123 52.797 183.466 52.797 186.68C52.797 189.241 53.498 191.375 54.797 192.77C57.414 195.579 57.329 197.006 54.547 196.973C53.003 196.955 51.512 195.663 49.797 192.858C46.288 187.119 40.619 181.484 36.289 179.429C31.967 177.378 20.719 176.863 20.085 178.687C19.858 179.339 23.759 184.258 28.753 189.616C35.208 196.542 37.466 199.592 36.565 200.164C33.781 201.932 31.4651 200.718 25.5441 194.389C15.182 183.312 3.88005 177.013 2.20405 181.381C1.22505 183.933 5.89205 191.788 11.367 196.803C15.294 200.4 16.797 202.502 16.797 204.397C16.797 205.839 14.976 211.28 12.751 216.489C9.37405 224.392 8.89305 226.311 9.84305 228.086C10.75 229.781 11.587 230.092 13.962 229.617C17.264 228.957 26.678 220.514 28.886 216.234C29.662 214.73 30.827 212.938 31.476 212.25C32.935 210.702 37.797 210.595 37.797 212.11C37.797 213.913 31.602 225 30.594 225C30.086 225 29.811 226.463 29.984 228.25C30.271 231.232 30.56 231.48 33.481 231.255C37.839 230.92 43.342 227.488 45.643 223.67C46.693 221.927 48.103 218.137 48.775 215.25C49.447 212.363 50.4411 210 50.9851 210C51.9081 210 51.765 211.942 50.12 221.75C49.695 224.279 49.926 225 51.16 225C53.542 225 55.797 219.726 55.797 214.157C55.797 210.572 56.232 209.047 57.379 208.607C60.116 207.557 60.526 207.903 61.148 211.792C62.14 217.996 69.109 223.036 76.594 222.964C82.51 222.907 99.2721 218.329 105.797 214.987C111.014 212.315 113.664 208.95 115.194 203.05C116.98 196.165 115.972 192.624 110.548 186.728C106.086 181.878 98.5101 177.808 89.4581 175.398C83.6501 173.851 70.4591 173.73 64.0581 175.164ZM187.145 175.42C169.099 179.797 156.797 193.846 156.797 210.077C156.797 221.182 161.559 226.469 174.297 229.507C178.147 230.425 183.772 232.645 186.797 234.44C196.619 240.268 198.759 241 205.99 241C214.518 241 218.359 239.187 225.701 231.694C231.879 225.39 234.909 219.581 235.583 212.743C236.784 200.581 227.965 184.697 216.87 179.037C211.849 176.476 201.563 174.007 196.297 174.1C194.097 174.138 189.979 174.732 187.145 175.42ZM260.797 176.055C255.311 177.441 251.524 177.788 246.695 177.345C240.705 176.796 239.953 176.94 238.587 178.889C235.077 183.901 239.299 188.744 249.213 191.077C252.009 191.735 259.451 194.012 265.75 196.136C272.049 198.261 278.824 200 280.804 200C284.245 200 292.635 195.689 294.237 193.098C294.61 192.494 295.719 192 296.701 192C299.014 192 301.797 188.902 301.797 186.326C301.797 183.658 299.592 181.787 291.435 177.536C285.218 174.295 283.969 174.007 276.474 174.08C271.977 174.124 264.922 175.013 260.797 176.055ZM345.902 175.543C342.533 176.564 340.273 176.627 336.222 175.813C333.146 175.196 328.118 175.054 324.192 175.474C316.172 176.333 312.678 179.095 310.773 186.083C310.111 188.512 309.413 191.052 309.223 191.726C309.034 192.4 306.899 193.882 304.48 195.019C302.06 196.156 299.23 197.859 298.189 198.802C297.148 199.746 294.272 202.069 291.797 203.965C284.17 209.808 270.797 223.279 270.797 225.12C270.797 226.079 272.181 227.849 273.872 229.053C276.426 230.872 277.739 231.13 281.622 230.574C294.048 228.796 296.534 228.838 306.798 231C318.826 233.533 324.658 233.307 330.939 230.065C335.847 227.531 339.797 224.189 339.797 222.57C339.797 221.975 341.259 220.865 343.047 220.102C348.764 217.665 352.98 213.84 355.01 209.25C356.097 206.794 358.294 203.416 359.892 201.744C361.49 200.071 362.797 197.645 362.797 196.352C362.797 195.058 363.192 194 363.676 194C364.159 194 365.099 192.537 365.764 190.75C366.43 188.963 367.61 186.306 368.386 184.846C370.257 181.326 370.166 179.677 367.947 176.937C366.338 174.95 365.071 174.624 358.197 174.432C353.806 174.309 348.345 174.802 345.902 175.543ZM126.798 177.123C121.97 179.048 119.797 182.021 119.797 186.701C119.797 190.525 120.342 191.598 124.294 195.55C129.599 200.855 132.197 202 138.928 202C147.873 202 152.765 197.306 154.386 187.167C154.947 183.658 154.691 182.807 152.452 180.731C151.032 179.415 148.114 177.812 145.968 177.169C141.278 175.764 130.272 175.738 126.798 177.123ZM246.206 202.498C245.048 204.265 244.778 205.948 245.283 208.248C246.537 213.958 246.262 218.495 244.418 222.551C237.24 238.335 233.987 242.692 226.297 246.818C221.777 249.242 221.267 249.87 220.981 253.348C220.6 257.983 222.886 261 226.778 261C228.333 261 230.429 262.044 231.797 263.5C233.508 265.322 235.184 266 237.971 266C243.682 266 245.791 263.381 245.823 256.25C245.844 251.464 246.732 248.572 251.117 239C259.201 221.353 260.367 219.421 263.783 218.006C267.293 216.552 268.797 214.307 268.797 210.52C268.797 207.029 264.428 202.665 261.776 203.507C260.515 203.907 258.825 203.38 257.157 202.069C253.414 199.124 248.285 199.325 246.206 202.498ZM124.642 213.042C122.273 215.532 120.797 218.05 120.797 219.598C120.797 222.399 116.941 226.399 111.334 229.414C107.786 231.321 107.767 231.32 105.471 229.164C100.856 224.828 97.4421 228.095 101.752 232.722C103.404 234.494 103.475 234.91 102.209 235.395C101.279 235.752 99.548 234.647 97.65 232.485C92.172 226.247 88.8291 228.754 93.6001 235.523C95.8691 238.742 96.3021 239.976 95.2971 240.362C94.5551 240.646 93.2091 239.752 92.3061 238.374C89.2001 233.633 87.3471 232 85.0751 232C81.8881 232 82.2281 233.968 86.3501 239.366C88.3041 241.925 89.6281 244.465 89.2911 245.01C88.2801 246.645 85.2251 246.131 83.2971 244C80.6461 241.07 77.9671 241.54 74.1301 245.608C67.0931 253.07 64.5051 262.703 68.9051 265.058C71.8771 266.648 88.5111 265.863 92.2971 263.954C95.3761 262.401 95.8901 260.224 94.3211 255.388C93.0871 251.585 96.498 251.693 102.925 255.66C107.65 258.577 109.117 259.073 110.083 258.082C111.042 257.097 110.28 255.908 106.455 252.422C100.49 246.985 102.226 245.333 109.059 249.944C113.826 253.162 117.797 253.93 117.797 251.636C117.797 250.886 115.997 249.025 113.797 247.5C107.414 243.076 108.751 241.405 115.797 245C123.485 248.922 126.984 246.238 120.196 241.625L116.595 239.178L118.991 237.609C123.277 234.8 127.459 233.749 129.66 234.927C134.615 237.578 140.616 235.239 139.528 231.08C139.157 229.661 139.769 228.84 141.838 227.983C145.965 226.273 147.994 223.592 147.622 220.338C147.308 217.592 147.113 217.5 141.62 217.5C135.961 217.5 135.945 217.491 136.495 214.752C137.211 211.182 135.325 209 131.52 209C129.278 209 127.485 210.053 124.642 213.042ZM357.005 219.567C355.775 220.429 354.158 222.594 353.412 224.379C351.666 228.559 344.269 236.276 339.884 238.494C328.087 244.461 311.996 246 304.258 241.902C298.873 239.05 292.366 238.862 290.372 241.5C287.557 245.225 288.9 250.868 292.923 252.209C293.798 252.5 293.802 253.122 292.94 254.732C290.062 260.109 293.331 264.685 299.257 263.573C301.204 263.208 302.797 262.552 302.797 262.115C302.797 260.55 308.001 258.997 315.087 258.447C330.916 257.219 338.666 255.131 352.519 248.361C359.791 244.807 366.069 241.369 366.471 240.719C366.872 240.07 367.3 235.365 367.421 230.263C367.591 223.145 367.295 220.64 366.148 219.494C364.206 217.551 359.833 217.586 357.005 219.567ZM55.823 232.088C43.94 236.305 31.957 244.029 29.143 249.289C27.287 252.755 29.133 254.72 35.483 256.039C46.862 258.401 55.125 255.064 60.821 245.807C64.363 240.05 65.862 232.288 63.696 230.917C61.965 229.821 62.395 229.757 55.823 232.088ZM150.429 237.46C143.933 240.131 141.377 242.188 135.663 249.34C131.305 254.795 130.831 257.816 133.898 260.591C135.828 262.338 138.669 262.561 169.07 263.349C198.371 264.108 202.521 264.025 205.469 262.619C207.93 261.446 208.797 260.381 208.797 258.53C208.797 255.229 204.25 252.3 190.965 247.041C185.283 244.791 178.353 241.795 175.565 240.382C169.557 237.338 162.279 235.017 158.797 235.035C157.422 235.042 153.657 236.133 150.429 237.46ZM262.924 240.096C258.697 244.034 257.575 250.736 260.27 255.947C261.876 259.053 268.939 263 272.89 263C276.612 263 279.797 260.309 279.797 257.166C279.797 255.669 280.697 253.674 281.797 252.732C284.039 250.813 284.391 246.363 282.498 243.877C278.164 238.185 267.241 236.075 262.924 240.096Z" fill="white" style="fill:white;fill-opacity:1;"/>
<path fill-rule="evenodd" clip-rule="evenodd" d="M268.734 2.75C268.206 4.262 266.42 6.4 264.763 7.5C257.078 12.603 258.9 28.482 267.415 30.619C271.893 31.743 277.379 29.4 279.186 25.592C282.308 19.015 280.849 10.574 276.047 7.428L273.605 5.828L275.701 3.875C278.787 1 278.283 0 273.745 0C270.224 0 269.567 0.36 268.734 2.75ZM201.438 2.948C200.716 3.802 199.545 5.97 198.834 7.766C197.323 11.583 195.945 10.974 193.816 5.548C192.519 2.243 192.127 2 188.083 2H183.742L184.02 16.25L184.297 30.5H187.797H191.297L191.613 24L191.929 17.5L193.892 21.75C196.242 26.838 198.073 27.141 199.926 22.75L201.297 19.5L201.797 25L202.297 30.5H205.797H209.297L209.574 16.363L209.851 2.225L206.3 1.811C203.911 1.532 202.32 1.904 201.438 2.948ZM51.317 4.25C51.032 5.488 50.686 10.325 50.548 15L50.297 23.5L47.084 23.179C44.325 22.902 43.777 23.23 43.207 25.502C42.283 29.183 44.025 30.5 49.819 30.5C53.572 30.5 55.269 29.972 56.964 28.278C58.955 26.286 59.23 24.807 59.615 14.028L60.044 2H55.939C52.503 2 51.751 2.366 51.317 4.25ZM66.248 7.131C62.876 8.769 61.672 11.815 61.672 18.706C61.672 24.08 62.066 25.658 63.894 27.604C69.154 33.202 78.744 31.246 80.873 24.141C82.559 18.514 81.2871 11.359 78.0711 8.379C75.3261 5.834 70.061 5.278 66.248 7.131ZM87.164 7.772C83.987 10.346 82.797 13.322 82.801 18.684C82.806 25.209 85.5861 29.682 90.1711 30.542C98.3471 32.076 103.252 27.992 102.604 20.19L102.297 16.5H97.2971C92.5861 16.5 92.279 16.659 91.981 19.25C91.755 21.214 92.112 22 93.231 22C94.844 22 95.2991 23.164 94.1391 24.325C92.6801 25.784 90.7971 22.502 90.7971 18.5C90.7971 13.951 92.6521 11.255 94.5051 13.108C96.1121 14.715 100.229 13.752 100.624 11.676C101.574 6.697 91.94 3.903 87.164 7.772ZM108.547 7.08C103.424 10.064 102.025 22.273 106.207 27.5C108.306 30.123 109.244 30.5 113.674 30.5C121.046 30.5 123.112 28.12 123.625 19.039C124.002 12.374 123.886 11.935 120.985 9.034C118.644 6.694 117.076 6.007 114.124 6.03C112.019 6.047 109.509 6.519 108.547 7.08ZM134.464 6.667C134.097 7.033 133.797 12.425 133.797 18.648V29.962L136.368 30.607C140.773 31.713 148.075 30.177 150.648 27.604C155.512 22.739 154.354 10.374 148.763 7.483C145.889 5.996 135.715 5.416 134.464 6.667ZM158.752 10.195C158.118 12.563 156.541 17.842 155.248 21.927C153.955 26.011 153.126 29.724 153.406 30.177C154.653 32.193 161.797 30.675 161.797 28.393C161.797 26.142 166.48 26.679 167.087 29C167.465 30.446 168.451 31 170.644 31C172.313 31 173.94 30.578 174.259 30.062C174.578 29.546 173.3 24.033 171.419 17.812L168 6.5L163.952 6.195C159.951 5.894 159.89 5.94 158.752 10.195ZM213.23 7.314C212.953 8.037 212.854 13.55 213.011 19.564L213.297 30.5H220.797H228.297L228.61 27.25C228.923 24.012 228.906 24 224.36 24C221.851 24 219.797 23.55 219.797 23C219.797 22.45 221.372 22 223.297 22C226.63 22 226.797 21.833 226.797 18.5C226.797 15.167 226.63 15 223.297 15C221.372 15 219.797 14.55 219.797 14C219.797 13.45 221.822 13 224.297 13C228.773 13 228.797 12.981 228.797 9.5V6H221.266C215.967 6 213.585 6.39 213.23 7.314ZM232.23 7.314C231.953 8.037 231.854 13.55 232.011 19.564C232.287 30.124 232.376 30.511 234.602 30.827C238.045 31.315 239.789 29.259 239.861 24.628L239.925 20.5L241.542 23.75C243.52 27.724 246.018 27.922 247.843 24.25L249.21 21.5L249.753 26C250.282 30.373 250.396 30.5 253.797 30.5H257.297L257.578 18.191L257.86 5.882L253.578 6.191C249.635 6.476 249.139 6.834 247.297 10.732C246.197 13.06 245.021 14.973 244.683 14.982C244.345 14.992 243.295 12.975 242.35 10.5C240.714 6.217 240.442 6 236.683 6C234.343 6 232.529 6.536 232.23 7.314ZM283.016 18.25L283.297 30.5H286.297C289.068 30.5 289.322 30.2 289.619 26.56L289.94 22.62L292.143 26.56C293.898 29.697 295.004 30.564 297.572 30.813C301.272 31.173 301.727 29.698 299.34 25.083C298.077 22.641 298.073 22.014 299.308 20.383C301.654 17.285 301.167 11.28 298.342 8.455C296.234 6.346 294.961 6 289.312 6H282.735L283.016 18.25ZM303.797 18.563V31.127L307.047 30.813L310.297 30.5L310.578 18.25L310.859 6H307.328H303.797V18.563ZM318.378 7.189C318.156 7.91 316.584 12.886 314.886 18.247C311.137 30.078 311.088 31 314.215 31C317.667 31 319.797 30.005 319.797 28.393C319.797 26.113 324.563 26.687 325.315 29.057C325.824 30.662 326.664 31.046 329.132 30.807C333.446 30.389 333.499 28.564 329.549 16.5L326.276 6.5L322.528 6.189C320.086 5.987 318.64 6.335 318.378 7.189ZM74.091 18.383C74.217 22.843 72.5701 24.886 70.3391 23.035C68.5001 21.508 68.2751 14.922 70.0041 13.193C71.8461 11.351 73.968 14.046 74.091 18.383ZM116.797 18.569C116.797 21.907 114.625 24.63 112.841 23.527C111.336 22.597 111.513 13.273 113.047 12.698C114.91 12 116.797 14.955 116.797 18.569ZM272.595 18.375C272.342 22.734 271.998 23.5 270.297 23.5C268.653 23.5 268.242 22.73 267.986 19.176C267.649 14.488 269.077 11.786 271.418 12.685C272.511 13.104 272.816 14.579 272.595 18.375ZM145.847 15.093C147.626 18.417 145.583 23.923 142.547 23.985C142.135 23.993 141.797 21.525 141.797 18.5C141.797 12.56 143.655 10.997 145.847 15.093ZM293.366 14.112C293.744 14.723 293.433 15.616 292.675 16.096C290.535 17.452 289.797 17.171 289.797 15C289.797 12.865 292.223 12.262 293.366 14.112ZM164.48 20.188C164.161 20.985 163.924 20.748 163.876 19.583C163.833 18.529 164.069 17.939 164.401 18.271C164.733 18.603 164.769 19.466 164.48 20.188ZM19.297 39.681C8.17405 42.179 1.79705 48.91 1.79705 58.152C1.79705 66.11 6.80405 71.666 20.797 79.234C25.517 81.787 26.777 84.114 24.757 86.548C22.463 89.313 16.847 88.071 12.099 83.75L9.90105 81.749L6.06405 84.788C3.95405 86.46 1.60705 88.987 0.848048 90.404C-0.370952 92.682 -0.319952 93.214 1.28905 94.992C7.13505 101.451 21.956 104.004 31.028 100.115C41.203 95.754 45.219 84.671 40.192 74.829C38.605 71.722 35.544 69.403 26.692 64.601C19.367 60.628 17.792 58.823 19.403 56.25C21.162 53.441 25.4411 53.522 28.8981 56.431C30.5771 57.844 32.253 58.995 32.624 58.989C34.248 58.963 41.797 50.663 41.797 48.903C41.797 46.297 33.998 41.423 27.649 40.062C24.926 39.478 22.383 39.052 21.998 39.116C21.612 39.18 20.397 39.434 19.297 39.681ZM266.464 40.396C254.487 43.709 248.791 53.556 248.803 70.932C248.813 86.983 252.794 95.489 262.617 100.448C265.038 101.67 268.102 102.066 273.936 101.912C281.926 101.701 281.939 101.705 283.852 104.85C284.906 106.583 286.182 108 286.688 108C288.405 108 296.046 103.507 296.548 102.202C296.823 101.488 295.896 99.285 294.489 97.307L291.929 93.71L294.506 88.782C297.724 82.628 298.797 68.425 296.767 58.858C293.777 44.767 280.313 36.565 266.464 40.396ZM57.3181 42.25C57.0891 42.938 55.498 48.9 53.783 55.5C50.796 66.998 47.715 78.531 45.638 86C45.102 87.925 44.319 91.11 43.896 93.077C43.474 95.044 42.79 97.202 42.377 97.871C40.814 100.4 43.882 102 50.297 102C57.412 102 58.264 101.359 59.272 95.25L59.973 91H66.757H73.5411L74.2131 95.2C75.1851 101.278 76.1491 102 83.2971 102C91.4231 102 92.261 101.027 90.271 93.906C88.388 87.17 87.856 85.25 82.398 65.5C79.967 56.7 77.4691 47.587 76.8481 45.25L75.72 41H66.7271C60.4221 41 57.6101 41.374 57.3181 42.25ZM94.7661 42.206C94.3741 58.432 94.994 100.597 95.634 101.237C96.113 101.716 99.159 101.972 102.401 101.804L108.297 101.5L108.797 86.573L109.297 71.646L113.977 81.823C118.058 90.699 118.971 92 121.116 92C123.239 92 124.27 90.597 128.646 81.75L133.717 71.5L134.007 86.5L134.297 101.5L139.231 101.812C141.944 101.984 145.207 101.863 146.481 101.543L148.797 100.962V70.939V40.916L141.047 41.208L133.297 41.5L127.321 53.818L121.345 66.135L115.321 53.818L109.297 41.5L102.047 41.206C96.6431 40.987 94.7891 41.242 94.7661 42.206ZM155.032 71.25L155.297 101.5L167.932 101.779C183.073 102.113 190.024 100.191 194.394 94.462C199.649 87.572 198.554 75.508 192.303 71.412C190.137 69.993 190.023 69.631 191.33 68.324C195.745 63.909 196.58 53.312 192.918 48.17C188.937 42.579 183.514 41 168.293 41H154.768L155.032 71.25ZM212.97 44.214C212.416 46.021 209.668 56.5 206.863 67.5C204.058 78.5 201.286 89.075 200.704 91C200.121 92.925 199.566 96.075 199.471 98L199.297 101.5H206.789H214.282L215.776 96.25L217.271 91H223.406H229.541L231.001 96.25L232.462 101.5H239.879H247.297L247.199 98C247.115 94.992 239.079 64.055 233.951 47L232.297 41.5L223.137 41.214L213.976 40.927L212.97 44.214ZM302.404 42.582C301.339 45.357 301.756 84.308 302.896 88.5C305.242 97.13 312.988 101.943 324.587 101.978C334.881 102.009 341.939 98.052 344.73 90.685C345.375 88.982 345.797 78.608 345.797 64.435V41H338.297C334.172 41 330.781 41.337 330.762 41.75C330.743 42.163 330.63 51.791 330.512 63.146C330.317 81.869 330.12 83.988 328.392 85.896C326.047 88.486 322.653 88.604 320.452 86.171C319.028 84.597 318.797 81.543 318.797 64.253C318.797 53.204 318.524 43.452 318.19 42.582C317.306 40.278 303.288 40.278 302.404 42.582ZM352.464 41.667C352.097 42.033 351.797 55.218 351.797 70.967C351.797 91.904 352.12 99.923 352.997 100.8C354.486 102.289 366.43 102.403 367.336 100.936C368.112 99.681 368.821 44.226 368.086 42.31C367.555 40.927 353.772 40.359 352.464 41.667ZM177.574 54.557C182.213 57.805 179.36 64 173.226 64H169.797V59.167C169.797 56.508 170.097 54.033 170.464 53.667C171.636 52.494 175.282 52.951 177.574 54.557ZM278.225 56.337C280.038 58.15 280.721 60.267 281.276 65.786C281.668 69.698 281.676 74.757 281.292 77.029L280.594 81.158L278.439 79.133C276.392 77.211 276.115 77.19 272.943 78.726C269.038 80.618 268.033 82.546 269.625 85.095C270.533 86.549 270.49 86.819 269.418 86.408C266.859 85.426 265.797 80.877 265.797 70.903C265.797 60.871 267.106 55.844 270.026 54.669C272.917 53.506 276.026 54.138 278.225 56.337ZM224.765 67.75C225.376 70.912 226.092 74.513 226.355 75.75C226.781 77.748 226.441 78 223.316 78C221.169 78 219.796 77.513 219.794 76.75C219.791 75.15 222.971 62 223.361 62C223.523 62 224.155 64.588 224.765 67.75ZM70.743 77.25C70.772 77.662 69.2221 78 67.2971 78C63.1361 78 62.9141 76.811 65.4601 68.154L67.122 62.5L68.9051 69.5C69.8861 73.35 70.713 76.838 70.743 77.25ZM179.452 78.128C181.272 79.639 181.158 85.455 179.279 87.015C178.444 87.708 176.081 88.326 174.029 88.388L170.297 88.5L169.989 83.095C169.783 79.462 170.111 77.403 170.989 76.818C172.546 75.78 177.557 76.556 179.452 78.128ZM3.03005 137.25L3.29705 163.5L13.56 163.785C29.69 164.233 35.072 161.9 39.413 152.579C41.346 148.426 41.778 145.859 41.782 138.5C41.788 124.058 38.922 117.496 30.797 113.352C26.872 111.349 24.794 111.053 14.53 111.028L2.76405 111L3.03005 137.25ZM54.472 111.75C53.991 112.564 50.344 126.162 48.237 135C46.886 140.665 45.468 145.896 43.63 152C43.051 153.925 42.356 157.412 42.086 159.75L41.596 164H48.137C55.107 164 55.722 163.613 56.744 158.587C57.345 155.629 57.604 155.488 62.954 155.204L68.536 154.908L69.6811 159.454L70.826 164H77.8111C85.9271 164 85.777 164.31 82.899 153.5C76.726 130.313 72.5431 115.214 71.7491 113.25C70.9131 111.181 70.199 111 62.877 111C58.498 111 54.716 111.338 54.472 111.75ZM101.03 137.25L101.297 163.5L112.797 163.799C127.324 164.178 129.94 163.674 134.169 159.686C138.938 155.187 140.503 149.137 138.353 143.507C137.464 141.181 135.659 138.729 134.297 138L131.843 136.687L134.254 134.452C138.396 130.613 138.775 122.948 135.099 117.338C131.856 112.388 127.086 111 113.32 111H100.764L101.03 137.25ZM143.03 137.225L143.297 163.5L159.047 163.775L174.797 164.051V158.025V152H165.797H156.797V148.046V144.091L163.547 143.796L170.297 143.5L170.593 137.87C170.875 132.51 170.763 132.208 168.238 131.575C166.78 131.209 163.609 131.206 161.192 131.568L156.797 132.227V128.114V124L164.547 123.985C168.809 123.976 172.885 123.596 173.605 123.14C174.487 122.58 174.812 120.553 174.605 116.905L174.297 111.5L158.53 111.225L142.764 110.949L143.03 137.225ZM179.248 112.268C178.98 112.965 178.882 124.778 179.029 138.518L179.297 163.5L186.047 163.796L192.797 164.091V137.546V111H186.266C181.913 111 179.572 111.423 179.248 112.268ZM198.248 112.268C197.98 112.965 197.882 124.778 198.029 138.518L198.297 163.5L205.547 163.794L212.797 164.088V155.544C212.797 146.457 214.149 144.348 216.512 149.75C217.173 151.262 218.852 155.088 220.243 158.25L222.772 164H229.816C234.945 164 237.006 163.618 237.399 162.594C237.696 161.821 236.124 157.987 233.907 154.074C231.69 150.161 229.748 146.404 229.592 145.726C229.436 145.048 230.712 143.025 232.426 141.231C235.847 137.652 237.344 131.124 236.167 124.929C235.014 118.861 233.34 116.521 227.692 113.077C224.728 111.27 222.676 111.007 211.516 111.004C202.113 111.001 198.606 111.335 198.248 112.268ZM253.319 112.25C253.091 112.938 251.543 118.9 249.879 125.5C248.215 132.1 245.499 142.45 243.843 148.5C239.469 164.482 239.347 164 247.778 164C254.578 164 254.775 163.929 255.371 161.25C256.81 154.783 256.55 155 262.864 155C268.566 155 268.797 155.1 268.797 157.566C268.797 162.964 270.252 164 277.832 164C284.202 164 284.797 163.824 284.797 161.937C284.797 160.802 282.544 151.914 279.79 142.187C277.036 132.459 274.283 122.7 273.674 120.5C270.891 110.46 271.547 111 262.144 111C256.304 111 253.607 111.382 253.319 112.25ZM288.284 113.25C287.981 114.487 287.86 126.3 288.015 139.5L288.297 163.5L300.797 163.484C314.257 163.467 317.015 162.691 322.266 157.44C326.423 153.283 327.797 148.639 327.797 138.744C327.797 128.058 326.578 123.403 322.476 118.427C317.617 112.532 313.125 111.047 300.066 111.022C289.241 111.001 288.815 111.081 288.284 113.25ZM340.922 116.214C340.222 119.121 339.278 122.625 338.824 124C338.37 125.375 336.994 130.325 335.766 135C334.537 139.675 332.428 147.461 331.078 152.303C329.728 157.145 328.882 161.779 329.197 162.601C329.639 163.752 331.19 164.027 335.93 163.798C342.423 163.484 343.163 162.946 344.256 157.75C344.807 155.133 345.116 155 350.624 155H356.413L357.355 159.25L358.297 163.5L365.547 163.794C370.538 163.996 372.797 163.727 372.797 162.931C372.797 161.474 364.447 129.813 360.025 114.5C359.159 111.503 359.15 111.5 350.676 111.214L342.194 110.928L340.922 116.214ZM122.547 124.245C125.726 126.788 122.048 132 117.074 132C115.048 132 114.797 131.513 114.797 127.583C114.797 124.98 115.31 122.964 116.047 122.672C117.553 122.077 120.827 122.869 122.547 124.245ZM22.2801 123.994C25.5651 125.242 27.799 130.4 27.791 136.718C27.78 146.426 24.601 152 19.074 152C16.809 152 16.797 151.922 16.797 137.5C16.797 121.813 16.7631 121.896 22.2801 123.994ZM219.968 124.655C222.044 126.534 222.419 131.978 220.597 133.8C219.937 134.46 217.912 135 216.097 135H212.797V129C212.797 123.164 212.87 123 215.468 123C216.937 123 218.962 123.745 219.968 124.655ZM309.397 124.765C311.833 126.392 312.797 130.281 312.797 138.482C312.797 146.512 312.618 147.262 310.151 149.548C308.696 150.896 306.446 152 305.151 152H302.797V138V124L305.547 124.015C307.059 124.024 308.792 124.361 309.397 124.765ZM264.753 140.75C264.789 142.568 264.249 143 261.943 143H259.09L260.443 137.782C261.188 134.912 261.827 131.65 261.864 130.532C261.949 127.982 264.693 137.688 264.753 140.75ZM64.2541 134.75C64.6281 136.813 65.1771 139.512 65.4741 140.75C65.9491 142.729 65.626 143 62.798 143C60.179 143 59.704 142.684 60.237 141.295C60.597 140.358 61.156 137.658 61.48 135.295C62.206 130.002 63.3531 129.777 64.2541 134.75ZM352.124 134.883C352.441 136.469 352.996 138.944 353.357 140.383C353.96 142.785 353.759 143 350.905 143C347.429 143 347.339 142.703 348.916 136.443C350.208 131.311 351.303 130.779 352.124 134.883ZM122.621 143.87C123.418 144.375 123.816 146.063 123.621 148.105C123.314 151.324 123.077 151.516 119.047 151.807L114.797 152.115V147.557C114.797 143.079 114.854 143 118.047 143.015C119.834 143.024 121.893 143.408 122.621 143.87ZM64.0581 175.164C61.5781 175.719 58.363 177.487 56.308 179.425C53.447 182.123 52.797 183.466 52.797 186.68C52.797 189.241 53.498 191.375 54.797 192.77C57.414 195.579 57.329 197.006 54.547 196.973C53.003 196.955 51.512 195.663 49.797 192.858C46.288 187.119 40.619 181.484 36.289 179.429C31.967 177.378 20.719 176.863 20.085 178.687C19.858 179.339 23.759 184.258 28.753 189.616C35.208 196.542 37.466 199.592 36.565 200.164C33.781 201.932 31.4651 200.718 25.5441 194.389C15.182 183.312 3.88005 177.013 2.20405 181.381C1.22505 183.933 5.89205 191.788 11.367 196.803C15.294 200.4 16.797 202.502 16.797 204.397C16.797 205.839 14.976 211.28 12.751 216.489C9.37405 224.392 8.89305 226.311 9.84305 228.086C10.75 229.781 11.587 230.092 13.962 229.617C17.264 228.957 26.678 220.514 28.886 216.234C29.662 214.73 30.827 212.938 31.476 212.25C32.935 210.702 37.797 210.595 37.797 212.11C37.797 213.913 31.602 225 30.594 225C30.086 225 29.811 226.463 29.984 228.25C30.271 231.232 30.56 231.48 33.481 231.255C40.449 230.719 46.779 224.616 48.264 217C49.375 211.304 49.875 210 50.952 210C51.914 210 51.784 211.827 50.12 221.75C49.695 224.279 49.926 225 51.16 225C53.542 225 55.797 219.726 55.797 214.157C55.797 210.572 56.232 209.047 57.379 208.607C60.116 207.557 60.526 207.903 61.148 211.792C61.862 216.259 65.637 220.183 71.052 222.086C79.09 224.911 105.161 217.628 111.559 210.771C114.602 207.509 116.836 198.724 115.684 194.551C113.569 186.893 102.632 178.905 89.4581 175.398C83.6501 173.851 70.4591 173.73 64.0581 175.164ZM187.145 175.42C169.099 179.797 156.797 193.846 156.797 210.077C156.797 221.182 161.559 226.469 174.297 229.507C178.147 230.425 183.772 232.645 186.797 234.44C196.619 240.268 198.759 241 205.99 241C214.534 241 218.357 239.188 225.766 231.628C231.108 226.177 231.721 225.214 234.445 218C239.101 205.67 230.142 185.808 216.87 179.037C211.849 176.476 201.563 174.007 196.297 174.1C194.097 174.138 189.979 174.732 187.145 175.42ZM260.797 176.055C255.311 177.441 251.524 177.788 246.695 177.345C240.705 176.796 239.953 176.94 238.587 178.889C235.077 183.901 239.299 188.744 249.213 191.077C252.009 191.735 259.451 194.012 265.75 196.136C272.049 198.261 278.824 200 280.804 200C284.245 200 292.635 195.689 294.237 193.098C294.61 192.494 295.719 192 296.701 192C299.014 192 301.797 188.902 301.797 186.326C301.797 183.658 299.592 181.787 291.435 177.536C285.218 174.295 283.969 174.007 276.474 174.08C271.977 174.124 264.922 175.013 260.797 176.055ZM345.902 175.543C342.533 176.564 340.273 176.627 336.222 175.813C333.146 175.196 328.118 175.054 324.192 175.474C316.172 176.333 312.678 179.095 310.773 186.083C310.111 188.512 309.413 191.052 309.223 191.726C309.034 192.4 306.899 193.882 304.48 195.019C302.06 196.156 299.23 197.859 298.189 198.802C297.148 199.746 294.272 202.07 291.797 203.968C284.854 209.29 271.897 222.11 271.181 224.364C270.713 225.84 271.315 227.021 273.419 228.751C275.888 230.781 277.007 231.034 281.297 230.526C284.047 230.2 288.551 229.677 291.306 229.363C294.628 228.985 299.845 229.536 306.798 231C318.826 233.533 324.658 233.307 330.939 230.065C335.847 227.531 339.797 224.189 339.797 222.57C339.797 221.975 341.259 220.865 343.047 220.102C348.716 217.685 352.728 214.042 354.85 209.384C355.982 206.899 358.233 203.479 359.853 201.784C361.472 200.09 362.797 197.645 362.797 196.352C362.797 195.058 363.192 194 363.676 194C364.159 194 365.099 192.537 365.764 190.75C366.43 188.963 367.61 186.306 368.386 184.846C370.257 181.326 370.166 179.677 367.947 176.937C366.338 174.95 365.071 174.624 358.197 174.432C353.806 174.309 348.345 174.802 345.902 175.543ZM126.798 177.123C121.97 179.048 119.797 182.021 119.797 186.701C119.797 190.525 120.342 191.598 124.294 195.55C129.599 200.855 132.197 202 138.928 202C147.873 202 152.765 197.306 154.386 187.167C154.947 183.658 154.691 182.807 152.452 180.731C151.032 179.415 148.114 177.812 145.968 177.169C141.278 175.764 130.272 175.738 126.798 177.123ZM246.715 201.599C245.985 202.479 245.48 204.954 245.592 207.099C245.705 209.245 245.891 212.711 246.005 214.801C246.12 216.892 245.405 220.38 244.418 222.551C237.43 237.919 233.853 242.91 227.513 246.145C221.874 249.022 220.797 250.325 220.797 254.274C220.797 258.259 223.305 261 226.951 261C228.325 261 230.505 262.125 231.797 263.5C233.508 265.322 235.184 266 237.971 266C243.682 266 245.791 263.381 245.823 256.25C245.844 251.464 246.732 248.572 251.117 239C259.201 221.353 260.367 219.421 263.783 218.006C267.293 216.552 268.797 214.307 268.797 210.52C268.797 207.029 264.428 202.665 261.776 203.507C260.515 203.907 258.825 203.38 257.157 202.069C254.027 199.607 248.572 199.361 246.715 201.599ZM125.287 212.31C123.466 214.131 121.479 217.467 120.872 219.723C119.973 223.06 118.759 224.495 114.362 227.413C108.075 231.586 107.697 231.652 105.297 229C103.012 226.476 99.7971 226.365 99.7971 228.811C99.7971 229.808 100.677 231.567 101.752 232.722C103.377 234.465 103.459 234.916 102.241 235.383C101.353 235.724 99.458 234.51 97.439 232.307C95.197 229.86 93.568 228.874 92.468 229.296C90.524 230.042 91.0771 232.125 94.4211 236.652C96.2611 239.143 96.4561 239.917 95.3491 240.342C94.5461 240.65 93.2471 239.809 92.3061 238.374C89.2001 233.633 87.3471 232 85.0751 232C81.8881 232 82.2281 233.968 86.3501 239.366C88.3041 241.925 89.6281 244.465 89.2911 245.01C88.2801 246.645 85.2251 246.131 83.2971 244C80.6461 241.07 77.9671 241.54 74.1301 245.608C67.0931 253.07 64.5051 262.703 68.9051 265.058C71.8771 266.648 88.5111 265.863 92.2971 263.954C95.3761 262.401 95.8901 260.224 94.3211 255.388C93.0871 251.585 96.498 251.693 102.925 255.66C107.65 258.577 109.117 259.073 110.083 258.082C111.042 257.097 110.28 255.908 106.455 252.422C100.49 246.985 102.226 245.333 109.059 249.944C113.826 253.162 117.797 253.93 117.797 251.636C117.797 250.886 115.997 249.025 113.797 247.5C107.414 243.076 108.751 241.405 115.797 245C123.485 248.922 126.984 246.238 120.196 241.625L116.595 239.178L118.991 237.609C123.277 234.8 127.459 233.749 129.66 234.927C134.615 237.578 140.616 235.239 139.528 231.08C139.157 229.661 139.769 228.84 141.838 227.983C145.965 226.273 147.994 223.592 147.622 220.338C147.308 217.592 147.113 217.5 141.62 217.5C135.961 217.5 135.945 217.491 136.495 214.752C137.773 208.383 130.745 206.852 125.287 212.31ZM357.005 219.567C355.775 220.429 354.158 222.594 353.412 224.379C350.287 231.859 340.658 239.316 329.916 242.577C322.665 244.777 309.071 244.442 304.258 241.943C298.781 239.1 292.341 238.895 290.371 241.501C287.557 245.226 288.901 250.868 292.923 252.209C293.798 252.5 293.802 253.122 292.94 254.732C290.062 260.109 293.331 264.685 299.257 263.573C301.204 263.208 302.797 262.552 302.797 262.115C302.797 260.55 308.001 258.997 315.087 258.447C330.916 257.219 338.666 255.131 352.519 248.361C359.791 244.807 366.036 241.422 366.398 240.837C366.759 240.253 367.2 235.561 367.378 230.411C367.633 223.038 367.378 220.724 366.178 219.524C364.209 217.555 359.849 217.575 357.005 219.567ZM55.823 232.088C43.94 236.305 31.957 244.029 29.143 249.289C27.287 252.755 29.133 254.72 35.483 256.039C46.862 258.401 55.125 255.064 60.821 245.807C64.363 240.05 65.862 232.288 63.696 230.917C61.965 229.821 62.395 229.757 55.823 232.088ZM150.429 237.46C143.933 240.131 141.377 242.188 135.663 249.34C131.305 254.795 130.831 257.816 133.898 260.591C135.828 262.338 138.669 262.561 169.07 263.349C198.371 264.108 202.521 264.025 205.469 262.619C207.93 261.446 208.797 260.381 208.797 258.53C208.797 255.229 204.25 252.3 190.965 247.041C185.283 244.791 178.353 241.795 175.565 240.382C169.557 237.338 162.279 235.017 158.797 235.035C157.422 235.042 153.657 236.133 150.429 237.46ZM262.924 240.096C258.697 244.034 257.575 250.736 260.27 255.947C261.876 259.053 268.939 263 272.89 263C276.612 263 279.797 260.309 279.797 257.166C279.797 255.669 280.697 253.674 281.797 252.732C284.039 250.813 284.391 246.363 282.498 243.877C278.164 238.185 267.241 236.075 262.924 240.096Z" fill="white" style="fill:white;fill-opacity:1;"/>
<path fill-rule="evenodd" clip-rule="evenodd" d="M51.1519 12.5C51.1489 17.45 51.3179 19.601 51.5279 17.28C51.7369 14.959 51.7399 10.909 51.5329 8.27998C51.3269 5.65098 51.1549 7.54998 51.1519 12.5ZM239.083 24.5C239.091 27.25 239.285 28.256 239.515 26.736C239.744 25.216 239.738 22.966 239.501 21.736C239.264 20.506 239.076 21.75 239.083 24.5ZM21.5469 39.662C22.2349 39.94 23.3599 39.94 24.0469 39.662C24.7349 39.385 24.1719 39.158 22.7969 39.158C21.4219 39.158 20.8599 39.385 21.5469 39.662ZM272.066 39.693C273.039 39.947 274.389 39.93 275.066 39.656C275.743 39.382 274.947 39.175 273.297 39.195C271.647 39.215 271.093 39.439 272.066 39.693ZM99.6099 41.683C100.331 41.972 101.194 41.936 101.526 41.604C101.858 41.272 101.268 41.036 100.214 41.079C99.0489 41.127 98.8119 41.364 99.6099 41.683ZM367.955 53C367.955 54.375 368.182 54.938 368.459 54.25C368.737 53.563 368.737 52.438 368.459 51.75C368.182 51.063 367.955 51.625 367.955 53ZM367.876 57.583C367.924 58.748 368.161 58.985 368.48 58.188C368.769 57.466 368.733 56.603 368.401 56.271C368.069 55.939 367.833 56.529 367.876 57.583ZM367.955 63C367.955 64.375 368.182 64.938 368.459 64.25C368.737 63.563 368.737 62.438 368.459 61.75C368.182 61.063 367.955 61.625 367.955 63ZM171.61 64.683C172.331 64.972 173.194 64.936 173.526 64.604C173.858 64.272 173.268 64.036 172.214 64.079C171.049 64.127 170.812 64.364 171.61 64.683ZM168.955 79C168.955 80.375 169.182 80.938 169.459 80.25C169.737 79.563 169.737 78.438 169.459 77.75C169.182 77.063 168.955 77.625 168.955 79ZM3.20188 87.25L1.29688 89.5L3.54688 87.595C4.78488 86.547 5.79688 85.535 5.79688 85.345C5.79688 84.545 4.99188 85.136 3.20188 87.25ZM288.227 136C288.227 148.925 288.37 154.213 288.544 147.75C288.718 141.287 288.718 130.712 288.544 124.25C288.37 117.787 288.227 123.075 288.227 136ZM303.61 123.683C304.331 123.972 305.194 123.936 305.526 123.604C305.858 123.272 305.268 123.036 304.214 123.079C303.049 123.127 302.812 123.364 303.61 123.683ZM163.047 131.689C164.01 131.941 165.584 131.941 166.547 131.689C167.51 131.438 166.722 131.232 164.797 131.232C162.872 131.232 162.084 131.438 163.047 131.689ZM65.8259 178.492C55.5169 180.982 53.3769 186.977 60.3719 193.77C62.3729 195.713 63.8799 198.22 63.9969 199.798C64.2139 202.736 64.4669 207.004 64.6689 211.114C64.7389 212.551 65.9829 214.914 67.4329 216.364C69.7599 218.69 70.8609 219 76.8059 219C89.8929 219 110.797 210.931 110.797 205.879C110.797 204.399 110.343 203.96 109.246 204.381C108.393 204.708 102.656 206.289 96.4959 207.893C90.3369 209.497 84.5099 211.126 83.5469 211.512C82.5839 211.898 81.7969 211.95 81.7969 211.627C81.7969 210.336 89.9489 207.01 99.3549 204.464C104.823 202.984 110.084 201.547 111.047 201.27C112.165 200.949 112.797 199.778 112.797 198.031C112.797 190.97 102.006 182.25 89.2199 178.98C80.4049 176.726 73.7139 176.586 65.8259 178.492ZM263.797 179.161C258.199 180.609 254.332 180.97 248.547 180.582C241.491 180.109 240.797 180.228 240.797 181.909C240.797 182.924 241.456 184.302 242.26 184.97C243.597 186.079 259.788 190.899 262.417 190.97C263.033 190.986 264.112 188.863 264.814 186.25C266.469 180.097 268.198 178.133 267.235 183.5C266.84 185.7 266.147 188.497 265.695 189.715C264.727 192.324 264.444 192.124 273.123 194.973C279.652 197.116 280.135 197.143 284.222 195.582C286.573 194.684 289.542 192.836 290.821 191.475C292.099 190.114 293.912 189 294.849 189C295.786 189 297.076 188.369 297.716 187.598C299.113 185.914 295.954 183.377 287.636 179.505C281.131 176.477 274.537 176.381 263.797 179.161ZM184.039 179.882C169.708 184.832 159.794 197.109 159.799 209.899C159.802 219.081 164.164 223.458 176.531 226.687C179.697 227.514 185.99 230.143 190.514 232.53C204.933 240.135 212.151 239.596 222.096 230.168C229.326 223.316 231.746 218.47 231.775 210.788C231.828 197.031 222.377 184.113 209.306 180.076C200.968 177.5 191.151 177.425 184.039 179.882ZM353.595 179.571C354.828 180.435 357.157 183.452 358.77 186.276C361.042 190.254 361.85 191.026 362.357 189.703C364.037 185.327 358.88 178 354.122 178H351.352L353.595 179.571ZM361.797 178.492C361.797 179.901 363.931 183 364.902 183C366.659 183 365.404 178.541 363.547 178.187C362.585 178.003 361.797 178.141 361.797 178.492ZM129.44 179.966C122.233 182.282 120.995 186.878 126.031 192.614C133.446 201.059 144.043 201.244 148.671 193.011C151.822 187.404 151.51 183.42 147.769 181.485C144.101 179.589 133.379 178.7 129.44 179.966ZM317.58 180.75C315.344 183.314 314.146 186.026 313.383 190.25C312.785 193.563 312.94 194 314.714 194C315.818 194 319.179 194.919 322.182 196.043C332.108 199.757 337.899 209.035 334.451 215.701C332.469 219.535 331.154 220.539 326.182 222.015C322.709 223.045 320.758 222.945 313.682 221.375C301.512 218.674 295.921 219.079 285.797 223.393L277.297 227.015L287.797 226.379C295.664 225.903 300.267 226.152 306.154 227.372C320.202 230.283 328.651 229.209 333.775 223.86C335.019 222.562 337.374 218.8 339.009 215.5C341.806 209.855 341.95 209.722 341.452 213.25C340.819 217.737 341.825 217.979 346.454 214.448C351.003 210.979 352.801 207.096 352.775 200.8C352.736 191.279 347.446 183.552 338.907 180.539C332.63 178.324 319.584 178.453 317.58 180.75ZM344.797 179.812C344.797 180.259 346.146 181.621 347.794 182.84C351.06 185.254 355.797 193.666 355.797 197.05C355.797 199.94 357.958 199.016 359.082 195.646C360.813 190.452 351.742 179 345.896 179C345.291 179 344.797 179.365 344.797 179.812ZM31.1019 186.94C34.7019 190.757 38.6659 195.257 39.9109 196.94C42.1769 200.005 45.7789 200.933 48.5609 199.167C50.3139 198.054 43.1859 188.22 38.1309 184.777C34.8159 182.519 28.1699 180.023 25.4259 180.006C24.9469 180.003 27.5009 183.123 31.1019 186.94ZM5.92188 185.25C6.57987 186.488 9.98987 190.481 13.4999 194.124C21.9299 202.874 22.2299 204.812 16.8579 215.824C10.6819 228.485 11.4519 230.23 19.4729 221.749C22.2039 218.861 25.6619 214.65 27.1579 212.39L29.8769 208.281L38.5869 207.581C43.3769 207.196 50.4469 206.345 54.2969 205.691C60.9469 204.56 61.3139 204.355 61.6269 201.609C61.9349 198.908 61.7709 198.758 59.1269 199.335C43.6729 202.703 36.3089 204.06 30.7969 204.552C24.7619 205.092 24.4369 205.02 26.2539 203.555C28.1489 202.027 28.0229 201.786 22.2539 195.935C17.0019 190.608 7.05388 183 5.34188 183C5.00388 183 5.26487 184.012 5.92188 185.25ZM91.6829 187.75C97.2539 192.376 94.0989 201 86.8349 201C82.1539 201 79.0099 198.57 78.1879 194.316C76.9309 187.806 86.2749 183.259 91.6829 187.75ZM332.853 188.525C336.646 191.305 341.786 199.361 341.771 202.5C341.765 203.728 340.61 202.377 338.781 199C337.142 195.975 333.888 191.814 331.549 189.753C326.741 185.515 327.619 184.688 332.853 188.525ZM345.29 188.989C345.64 189.555 345.239 189.723 344.349 189.382C342.617 188.717 342.3 188 343.738 188C344.256 188 344.954 188.445 345.29 188.989ZM307.541 197.428C302.619 199.185 295.449 204.695 283.88 215.613C277.088 222.024 274.943 224.593 276.184 224.834C278.522 225.287 292.445 217.93 302.728 210.809C311.342 204.843 318.381 202.017 324.729 201.978L328.297 201.956L325.797 200.034C323.285 198.104 316.473 195.962 313.104 196.044C312.11 196.068 309.607 196.691 307.541 197.428ZM175.353 200.556C174.409 201.995 173.387 202.924 173.082 202.618C172.776 202.312 173.298 200.884 174.241 199.444C175.185 198.005 176.207 197.076 176.512 197.382C176.818 197.688 176.296 199.116 175.353 200.556ZM212.282 202.582C215.398 204.624 217.18 209.863 215.902 213.225C213.369 219.886 204.485 222.133 198.983 217.503C197.351 216.13 195.728 213.862 195.377 212.465C194.57 209.249 197.16 203.617 200.1 202.197C203.4 200.602 209.557 200.797 212.282 202.582ZM249.464 203.667C248.441 204.689 248.671 208.628 249.911 211.351C251.308 214.417 249.271 221.151 243.627 232.123C238.893 241.327 233.785 247.507 229.018 249.798C224.456 251.991 222.964 254.292 224.727 256.416C225.45 257.287 227.195 258 228.605 258C230.015 258 232.186 258.956 233.43 260.125C235.613 262.176 240.152 262.978 241.567 261.563C241.945 261.186 242.536 257.642 242.881 253.688C243.404 247.697 244.586 244.169 249.98 232.5C255.422 220.727 257.053 218.091 260.236 215.925C266.937 211.367 267.189 207.706 260.824 207.386C259.225 207.306 256.705 206.286 255.222 205.12C252.461 202.948 250.642 202.489 249.464 203.667ZM40.3299 215.708C38.8929 218.847 36.5869 222.897 35.2059 224.708C32.8439 227.804 32.8129 228 34.6689 228C37.7549 228 42.5019 223.363 44.1699 218.722C47.0589 210.681 47.1189 210 44.9379 210C43.4839 210 42.2359 211.546 40.3299 215.708ZM127.688 215.117C126.087 216.831 124.529 219.418 124.227 220.867C123.278 225.419 122.384 226.346 112.725 232.795C107.54 236.257 103.161 239.479 102.994 239.953C102.093 242.523 105.673 241.566 113.03 237.272C123.804 230.983 125.797 230.199 128.797 231.073C130.172 231.473 132.399 231.845 133.747 231.9C135.653 231.978 135.93 231.733 134.997 230.8C133.147 228.95 133.568 227.277 136.047 226.629C137.285 226.306 139.82 225.102 141.681 223.954C144.211 222.393 144.777 221.58 143.925 220.728C143.073 219.876 141.394 220.063 137.264 221.467C130.178 223.875 128.559 222.739 131.74 217.591C135.388 211.69 132.523 209.941 127.688 215.117ZM174.925 216.75C176.168 218.336 176.133 218.371 174.547 217.128C172.881 215.821 172.352 215 173.175 215C173.382 215 174.17 215.787 174.925 216.75ZM186.797 219.5C188.148 221.128 187.825 221.332 185.379 220.393C184.509 220.059 183.797 219.384 183.797 218.893C183.797 217.51 185.417 217.838 186.797 219.5ZM360.02 221.671C359.318 221.954 357.815 224.005 356.679 226.231C353.905 231.67 346.456 238.879 340.087 242.29C334.457 245.306 322.446 248.02 314.959 247.967C312.395 247.949 307.822 247.015 304.797 245.891C296.857 242.94 294.371 242.603 292.973 244.288C291.371 246.218 292.335 248.469 295.352 249.843C298.187 251.135 298.336 252.056 296.337 255.923C295.534 257.476 295.159 259.028 295.504 259.373C296.724 260.593 299.913 259.974 302.587 257.998C304.63 256.488 308.005 255.744 316.297 254.972C331.64 253.545 337.48 251.864 351.658 244.793L364.018 238.629L363.416 234.234C363.077 231.765 363.285 228.956 363.89 227.826C366.049 223.792 363.768 220.164 360.02 221.671ZM202.797 231.607C202.797 231.823 202.122 232 201.297 232C200.472 232 199.797 231.564 199.797 231.031C199.797 230.499 200.472 230.322 201.297 230.638C202.122 230.955 202.797 231.391 202.797 231.607ZM54.2209 236.337C47.0739 239.382 36.2799 245.857 33.6069 248.703C30.8629 251.623 31.8729 252.548 38.8539 253.508C48.2579 254.801 58.7999 246.891 61.1879 236.75C61.9719 233.42 61.1769 233.373 54.2209 236.337ZM154.791 238.924C149.819 240.457 146.153 242.912 141.651 247.725C135.492 254.309 134.404 256.429 136.351 258.045C138.184 259.566 196.778 261.58 201.748 260.293C208.116 258.642 205.977 257.148 183.297 247.403C162.706 238.556 159.285 237.538 154.791 238.924ZM96.4089 243.876C94.9889 245.445 94.9449 245.843 96.1389 246.301C97.8859 246.971 102.054 244.226 101.255 242.932C100.334 241.441 98.2439 241.849 96.4089 243.876ZM264.434 243.506C258.841 249.099 264.055 259 272.594 259C275.942 259 276.833 257.64 276.077 253.687C275.705 251.741 275.976 251 277.058 251C277.88 251 279.154 250.274 279.89 249.387C281.046 247.995 280.788 247.381 277.997 244.887C275.469 242.629 273.805 242 270.353 242C267.756 242 265.32 242.62 264.434 243.506ZM74.8539 250.75C67.5959 259.163 67.9639 263.031 76.0159 262.94C82.0719 262.872 90.5049 261.626 91.4749 260.656C91.8369 260.293 91.5809 258.964 90.9049 257.702C89.3259 254.752 81.0739 246 79.8709 246C79.3659 246 77.1079 248.137 74.8539 250.75ZM90.5149 247.64C87.8239 249.05 87.6209 251 90.1649 251C92.2499 251 94.8079 248.577 94.0259 247.342C93.4829 246.485 92.5719 246.562 90.5149 247.64ZM79.7969 255C79.7969 257.109 78.3419 257.691 77.2969 256C76.5679 254.82 77.5139 253 78.8559 253C79.3739 253 79.7969 253.9 79.7969 255Z" fill="white" style="fill:white;fill-opacity:1;"/>
<path fill-rule="evenodd" clip-rule="evenodd" d="M51.1249 10.4998C51.1299 14.3498 51.3099 15.8018 51.5269 13.7278C51.7429 11.6528 51.7399 8.50277 51.5189 6.72777C51.2979 4.95177 51.1209 6.64977 51.1249 10.4998ZM239.083 24.4998C239.091 27.2498 239.285 28.2558 239.515 26.7358C239.744 25.2158 239.738 22.9658 239.501 21.7358C239.264 20.5058 239.076 21.7498 239.083 24.4998ZM21.5469 39.6618C22.2349 39.9398 23.3599 39.9398 24.0469 39.6618C24.7349 39.3848 24.1719 39.1578 22.7969 39.1578C21.4219 39.1578 20.8599 39.3848 21.5469 39.6618ZM99.6099 41.6828C100.331 41.9718 101.194 41.9358 101.526 41.6038C101.858 41.2718 101.268 41.0358 100.214 41.0788C99.0489 41.1268 98.8119 41.3638 99.6099 41.6828ZM367.955 62.9998C367.955 64.3748 368.182 64.9378 368.459 64.2498C368.737 63.5628 368.737 62.4378 368.459 61.7498C368.182 61.0628 367.955 61.6248 367.955 62.9998ZM171.61 64.6828C172.331 64.9718 173.194 64.9358 173.526 64.6038C173.858 64.2718 173.268 64.0358 172.214 64.0788C171.049 64.1268 170.812 64.3638 171.61 64.6828ZM168.955 78.9998C168.955 80.3748 169.182 80.9378 169.459 80.2498C169.737 79.5628 169.737 78.4378 169.459 77.7498C169.182 77.0628 168.955 77.6248 168.955 78.9998ZM3.20188 87.2498L1.29688 89.4998L3.54688 87.5948C4.78488 86.5468 5.79688 85.5348 5.79688 85.3448C5.79688 84.5448 4.99188 85.1358 3.20188 87.2498ZM287.992 115.5C288.012 117.15 288.236 117.704 288.49 116.731C288.744 115.758 288.727 114.408 288.453 113.731C288.179 113.054 287.972 113.85 287.992 115.5ZM303.61 123.683C304.331 123.972 305.194 123.936 305.526 123.604C305.858 123.272 305.268 123.036 304.214 123.079C303.049 123.127 302.812 123.364 303.61 123.683ZM165.61 131.683C166.331 131.972 167.194 131.936 167.526 131.604C167.858 131.272 167.268 131.036 166.214 131.079C165.049 131.127 164.812 131.364 165.61 131.683ZM65.8259 178.492C55.5169 180.982 53.3769 186.977 60.3719 193.77C62.3729 195.713 63.8799 198.22 63.9969 199.798C64.2139 202.736 64.4669 207.004 64.6689 211.114C64.7389 212.551 65.9829 214.914 67.4329 216.364C69.7599 218.69 70.8609 219 76.8059 219C89.8929 219 110.797 210.931 110.797 205.879C110.797 204.399 110.343 203.96 109.246 204.381C108.393 204.708 102.656 206.289 96.4959 207.893C90.3369 209.497 84.5099 211.126 83.5469 211.512C82.5839 211.898 81.7969 211.95 81.7969 211.627C81.7969 210.336 89.9489 207.01 99.3549 204.464C104.823 202.984 110.084 201.547 111.047 201.27C112.165 200.949 112.797 199.778 112.797 198.031C112.797 190.97 102.006 182.25 89.2199 178.98C80.4049 176.726 73.7139 176.586 65.8259 178.492ZM263.797 179.161C258.199 180.609 254.332 180.97 248.547 180.582C241.491 180.109 240.797 180.228 240.797 181.909C240.797 182.924 241.456 184.302 242.26 184.97C243.597 186.079 259.788 190.899 262.417 190.97C263.033 190.986 264.112 188.863 264.814 186.25C266.469 180.097 268.198 178.133 267.235 183.5C266.84 185.7 266.147 188.497 265.695 189.715C264.727 192.324 264.444 192.124 273.123 194.973C279.652 197.116 280.135 197.143 284.222 195.582C286.573 194.684 289.542 192.836 290.821 191.475C292.099 190.114 293.912 189 294.849 189C295.786 189 297.076 188.369 297.716 187.598C299.113 185.914 295.954 183.377 287.636 179.505C281.131 176.477 274.537 176.381 263.797 179.161ZM184.039 179.882C169.708 184.832 159.794 197.109 159.799 209.899C159.802 219.081 164.164 223.458 176.531 226.687C179.697 227.514 185.99 230.143 190.514 232.53C204.933 240.135 212.151 239.596 222.096 230.168C229.326 223.316 231.746 218.47 231.775 210.788C231.828 197.031 222.377 184.113 209.306 180.076C200.968 177.5 191.151 177.425 184.039 179.882ZM353.595 179.571C354.828 180.435 357.157 183.452 358.77 186.276C361.042 190.254 361.85 191.026 362.357 189.703C364.037 185.327 358.88 178 354.122 178H351.352L353.595 179.571ZM361.797 178.492C361.797 179.901 363.931 183 364.902 183C366.659 183 365.404 178.541 363.547 178.187C362.585 178.003 361.797 178.141 361.797 178.492ZM129.44 179.966C122.233 182.282 120.995 186.878 126.031 192.614C133.446 201.059 144.043 201.244 148.671 193.011C151.822 187.404 151.51 183.42 147.769 181.485C144.101 179.589 133.379 178.7 129.44 179.966ZM317.58 180.75C315.344 183.314 314.146 186.026 313.383 190.25C312.785 193.563 312.94 194 314.714 194C315.818 194 319.179 194.919 322.182 196.043C332.108 199.757 337.899 209.035 334.451 215.701C332.469 219.535 331.154 220.539 326.182 222.015C322.709 223.045 320.758 222.945 313.682 221.375C301.512 218.674 295.921 219.079 285.797 223.393L277.297 227.015L287.797 226.379C295.664 225.903 300.267 226.152 306.154 227.372C320.202 230.283 328.651 229.209 333.775 223.86C335.019 222.562 337.374 218.8 339.009 215.5C341.806 209.855 341.95 209.722 341.452 213.25C340.819 217.737 341.825 217.979 346.454 214.448C351.003 210.979 352.801 207.096 352.775 200.8C352.736 191.279 347.446 183.552 338.907 180.539C332.63 178.324 319.584 178.453 317.58 180.75ZM344.797 179.812C344.797 180.259 346.146 181.621 347.794 182.84C351.06 185.254 355.797 193.666 355.797 197.05C355.797 199.94 357.958 199.016 359.082 195.646C360.813 190.452 351.742 179 345.896 179C345.291 179 344.797 179.365 344.797 179.812ZM31.1019 186.94C34.7019 190.757 38.6659 195.257 39.9109 196.94C42.1769 200.005 45.7789 200.933 48.5609 199.167C50.3139 198.054 43.1859 188.22 38.1309 184.777C34.8159 182.519 28.1699 180.023 25.4259 180.006C24.9469 180.003 27.5009 183.123 31.1019 186.94ZM5.92188 185.25C6.57987 186.488 9.98987 190.481 13.4999 194.124C21.9299 202.874 22.2299 204.812 16.8579 215.824C10.6819 228.485 11.4519 230.23 19.4729 221.749C22.2039 218.861 25.6619 214.65 27.1579 212.39L29.8769 208.281L38.5869 207.581C43.3769 207.196 50.4469 206.345 54.2969 205.691C60.9469 204.56 61.3139 204.355 61.6269 201.609C61.9349 198.908 61.7709 198.758 59.1269 199.335C43.6729 202.703 36.3089 204.06 30.7969 204.552C24.7619 205.092 24.4369 205.02 26.2539 203.555C28.1489 202.027 28.0229 201.786 22.2539 195.935C17.0019 190.608 7.05388 183 5.34188 183C5.00388 183 5.26487 184.012 5.92188 185.25ZM91.6829 187.75C97.2539 192.376 94.0989 201 86.8349 201C82.1539 201 79.0099 198.57 78.1879 194.316C76.9309 187.806 86.2749 183.259 91.6829 187.75ZM332.853 188.525C336.646 191.305 341.786 199.361 341.771 202.5C341.765 203.728 340.61 202.377 338.781 199C337.142 195.975 333.888 191.814 331.549 189.753C326.741 185.515 327.619 184.688 332.853 188.525ZM345.29 188.989C345.64 189.555 345.239 189.723 344.349 189.382C342.617 188.717 342.3 188 343.738 188C344.256 188 344.954 188.445 345.29 188.989ZM307.541 197.428C302.619 199.185 295.449 204.695 283.88 215.613C277.088 222.024 274.943 224.593 276.184 224.834C278.522 225.287 292.445 217.93 302.728 210.809C311.342 204.843 318.381 202.017 324.729 201.978L328.297 201.956L325.797 200.034C323.285 198.104 316.473 195.962 313.104 196.044C312.11 196.068 309.607 196.691 307.541 197.428ZM175.353 200.556C174.409 201.995 173.387 202.924 173.082 202.618C172.776 202.312 173.298 200.884 174.241 199.444C175.185 198.005 176.207 197.076 176.512 197.382C176.818 197.688 176.296 199.116 175.353 200.556ZM212.282 202.582C215.398 204.624 217.18 209.863 215.902 213.225C213.369 219.886 204.485 222.133 198.983 217.503C197.351 216.13 195.728 213.862 195.377 212.465C194.57 209.249 197.16 203.617 200.1 202.197C203.4 200.602 209.557 200.797 212.282 202.582ZM249.464 203.667C248.441 204.689 248.671 208.628 249.911 211.351C251.308 214.417 249.271 221.151 243.627 232.123C238.893 241.327 233.785 247.507 229.018 249.798C224.456 251.991 222.964 254.292 224.727 256.416C225.45 257.287 227.195 258 228.605 258C230.015 258 232.186 258.956 233.43 260.125C235.613 262.176 240.152 262.978 241.567 261.563C241.945 261.186 242.536 257.642 242.881 253.688C243.404 247.697 244.586 244.169 249.98 232.5C255.422 220.727 257.053 218.091 260.236 215.925C266.937 211.367 267.189 207.706 260.824 207.386C259.225 207.306 256.705 206.286 255.222 205.12C252.461 202.948 250.642 202.489 249.464 203.667ZM40.3299 215.708C38.8929 218.847 36.5869 222.897 35.2059 224.708C32.8439 227.804 32.8129 228 34.6689 228C37.7549 228 42.5019 223.363 44.1699 218.722C47.0589 210.681 47.1189 210 44.9379 210C43.4839 210 42.2359 211.546 40.3299 215.708ZM127.688 215.117C126.087 216.831 124.529 219.418 124.227 220.867C123.278 225.419 122.384 226.346 112.725 232.795C107.54 236.257 103.161 239.479 102.994 239.953C102.093 242.523 105.673 241.566 113.03 237.272C123.804 230.983 125.797 230.199 128.797 231.073C130.172 231.473 132.399 231.845 133.747 231.9C135.653 231.978 135.93 231.733 134.997 230.8C133.147 228.95 133.568 227.277 136.047 226.629C137.285 226.306 139.82 225.102 141.681 223.954C144.211 222.393 144.777 221.58 143.925 220.728C143.073 219.876 141.394 220.063 137.264 221.467C130.178 223.875 128.559 222.739 131.74 217.591C135.388 211.69 132.523 209.941 127.688 215.117ZM174.925 216.75C176.168 218.336 176.133 218.371 174.547 217.128C172.881 215.821 172.352 215 173.175 215C173.382 215 174.17 215.787 174.925 216.75ZM186.797 219.5C188.148 221.128 187.825 221.332 185.379 220.393C184.509 220.059 183.797 219.384 183.797 218.893C183.797 217.51 185.417 217.838 186.797 219.5ZM360.02 221.671C359.318 221.954 357.815 224.005 356.679 226.231C353.905 231.67 346.456 238.879 340.087 242.29C334.457 245.306 322.446 248.02 314.959 247.967C312.395 247.949 307.822 247.015 304.797 245.891C296.857 242.94 294.371 242.603 292.973 244.288C291.371 246.218 292.335 248.469 295.352 249.843C298.187 251.135 298.336 252.056 296.337 255.923C295.534 257.476 295.159 259.028 295.504 259.373C296.724 260.593 299.913 259.974 302.587 257.998C304.63 256.488 308.005 255.744 316.297 254.972C331.64 253.545 337.48 251.864 351.658 244.793L364.018 238.629L363.416 234.234C363.077 231.765 363.285 228.956 363.89 227.826C366.049 223.792 363.768 220.164 360.02 221.671ZM202.797 231.607C202.797 231.823 202.122 232 201.297 232C200.472 232 199.797 231.564 199.797 231.031C199.797 230.499 200.472 230.322 201.297 230.638C202.122 230.955 202.797 231.391 202.797 231.607ZM54.2209 236.337C47.0739 239.382 36.2799 245.857 33.6069 248.703C30.8629 251.623 31.8729 252.548 38.8539 253.508C48.2579 254.801 58.7999 246.891 61.1879 236.75C61.9719 233.42 61.1769 233.373 54.2209 236.337ZM154.791 238.924C149.819 240.457 146.153 242.912 141.651 247.725C135.492 254.309 134.404 256.429 136.351 258.045C138.184 259.566 196.778 261.58 201.748 260.293C208.116 258.642 205.977 257.148 183.297 247.403C162.706 238.556 159.285 237.538 154.791 238.924ZM96.4089 243.876C94.9889 245.445 94.9449 245.843 96.1389 246.301C97.8859 246.971 102.054 244.226 101.255 242.932C100.334 241.441 98.2439 241.849 96.4089 243.876ZM264.434 243.506C258.841 249.099 264.055 259 272.594 259C275.942 259 276.833 257.64 276.077 253.687C275.705 251.741 275.976 251 277.058 251C277.88 251 279.154 250.274 279.89 249.387C281.046 247.995 280.788 247.381 277.997 244.887C275.469 242.629 273.805 242 270.353 242C267.756 242 265.32 242.62 264.434 243.506ZM74.8539 250.75C67.5959 259.163 67.9639 263.031 76.0159 262.94C82.0719 262.872 90.5049 261.626 91.4749 260.656C91.8369 260.293 91.5809 258.964 90.9049 257.702C89.3259 254.752 81.0739 246 79.8709 246C79.3659 246 77.1079 248.137 74.8539 250.75ZM90.5149 247.64C87.8239 249.05 87.6209 251 90.1649 251C92.2499 251 94.8079 248.577 94.0259 247.342C93.4829 246.485 92.5719 246.562 90.5149 247.64ZM79.7969 255C79.7969 257.109 78.3419 257.691 77.2969 256C76.5679 254.82 77.5139 253 78.8559 253C79.3739 253 79.7969 253.9 79.7969 255Z" fill="#7B9166" style="fill:#7B9166;fill:color(display-p3 0.4817 0.5671 0.4017);fill-opacity:1;"/>
<path fill-rule="evenodd" clip-rule="evenodd" d="M51.1246 10.4998C51.1296 14.3498 51.3096 15.8018 51.5266 13.7278C51.7426 11.6528 51.7396 8.50277 51.5186 6.72777C51.2976 4.95177 51.1206 6.64977 51.1246 10.4998ZM239.083 24.4998C239.091 27.2498 239.285 28.2558 239.515 26.7358C239.744 25.2158 239.738 22.9658 239.501 21.7358C239.264 20.5058 239.076 21.7498 239.083 24.4998ZM21.5466 39.6618C22.2346 39.9398 23.3596 39.9398 24.0466 39.6618C24.7346 39.3848 24.1716 39.1578 22.7966 39.1578C21.4216 39.1578 20.8596 39.3848 21.5466 39.6618ZM99.6096 41.6828C100.331 41.9718 101.194 41.9358 101.526 41.6038C101.858 41.2718 101.268 41.0358 100.214 41.0788C99.0486 41.1268 98.8116 41.3638 99.6096 41.6828ZM367.955 62.9998C367.955 64.3748 368.182 64.9378 368.459 64.2498C368.737 63.5628 368.737 62.4378 368.459 61.7498C368.182 61.0628 367.955 61.6248 367.955 62.9998ZM168.955 78.9998C168.955 80.3748 169.182 80.9378 169.459 80.2498C169.737 79.5628 169.737 78.4378 169.459 77.7498C169.182 77.0628 168.955 77.6248 168.955 78.9998ZM3.66856 86.7498C2.42556 88.3358 2.46056 88.3708 4.04656 87.1278C5.00856 86.3728 5.79656 85.5848 5.79656 85.3778C5.79656 84.5548 4.97556 85.0838 3.66856 86.7498ZM287.992 115.5C288.012 117.15 288.236 117.704 288.49 116.731C288.744 115.758 288.727 114.408 288.453 113.731C288.179 113.054 287.972 113.85 287.992 115.5ZM303.61 123.683C304.331 123.972 305.194 123.936 305.526 123.604C305.858 123.272 305.268 123.036 304.214 123.079C303.049 123.127 302.812 123.364 303.61 123.683ZM165.61 131.683C166.331 131.972 167.194 131.936 167.526 131.604C167.858 131.272 167.268 131.036 166.214 131.079C165.049 131.127 164.812 131.364 165.61 131.683Z" fill="white" style="fill:white;fill-opacity:1;"/>
</svg>
