<svg width="1294" height="840" viewBox="0 0 1294 840" fill="none" xmlns="http://www.w3.org/2000/svg">
<path fill-rule="evenodd" clip-rule="evenodd" d="M632.121 672.869C631.977 651.695 632.078 633.798 632.347 633.098C632.726 632.111 637.71 631.886 654.609 632.095L676.383 632.366L676.688 637.116C676.906 640.52 676.623 641.859 675.688 641.843C674.97 641.83 668.533 640.941 661.383 639.866C654.233 638.791 647.129 637.902 645.595 637.889L642.808 637.866L643.095 647.116L643.383 656.366L654.883 656.866L666.383 657.366L666.701 661.248C666.876 663.383 666.651 665.486 666.201 665.922C665.751 666.358 662.233 665.636 658.383 664.316C654.533 662.997 649.478 661.906 647.15 661.892L642.918 661.866L642.65 686.616L642.383 711.366H637.383H632.383L632.121 672.869ZM863.121 672.869C862.977 651.695 863.084 633.784 863.36 633.066C863.706 632.164 865.487 631.854 869.122 632.063L874.383 632.366L874.645 669.116L874.908 705.866H877.34C878.679 705.866 885.912 704.964 893.416 703.861C900.919 702.759 907.469 702.11 907.971 702.42C908.472 702.73 908.883 704.748 908.883 706.905C908.883 710.142 908.49 710.923 906.633 711.379C905.396 711.683 895.158 711.805 883.883 711.649L863.383 711.366L863.121 672.869ZM727.307 642.508C728.64 641.634 730.021 640.006 730.375 638.892C730.728 637.777 731.632 636.866 732.383 636.866C733.134 636.866 734.038 637.777 734.391 638.892C734.745 640.006 736.126 641.634 737.459 642.508C740.179 644.29 740.698 646.866 738.336 646.866C737.486 646.866 736.023 648.213 735.086 649.86C733.099 653.353 731.287 653.716 730.364 650.805C730.004 649.672 728.624 648.249 727.296 647.645C724.226 646.246 724.23 644.524 727.307 642.508ZM916.401 642.858C917.786 642.332 919.35 640.769 919.876 639.384C920.403 637.999 921.07 636.866 921.358 636.866C922.185 636.866 929.883 644.779 929.883 645.629C929.883 646.048 928.87 646.836 927.633 647.379C926.396 647.922 924.939 649.379 924.396 650.616C923.113 653.541 921.12 653.481 919.751 650.476C919.152 649.162 917.587 647.597 916.273 646.998C913.188 645.592 913.236 644.062 916.401 642.858ZM1144.4 642.861C1145.78 642.336 1147.42 640.772 1148.06 639.386C1148.69 638 1149.36 636.866 1149.54 636.866C1150.37 636.866 1157.88 644.97 1157.88 645.866C1157.88 646.416 1157.19 646.866 1156.34 646.866C1155.49 646.866 1154.02 648.213 1153.09 649.86C1151.11 653.328 1148.93 653.757 1148.16 650.826C1147.87 649.704 1146.34 648.117 1144.76 647.3C1141.22 645.471 1141.11 644.111 1144.4 642.861ZM1067.51 654.865C1065.15 654.866 1065.64 651.88 1069.33 643.562L1071.91 637.757L1076.64 638.062C1079.78 638.263 1081.38 638.818 1081.38 639.702C1081.38 641.926 1069.54 654.864 1067.51 654.865ZM939.883 650.533C939.883 647.049 940.183 643.899 940.55 643.533C940.916 643.166 943.596 642.866 946.504 642.866H951.792L952.087 649.616L952.383 656.366L956.383 656.866C959.05 657.199 960.383 657.866 960.383 658.866C960.383 659.866 959.05 660.533 956.383 660.866L952.383 661.366L952.113 682.172C951.882 699.879 952.09 703.499 953.504 706.48C955.644 710.99 954.552 712.075 948.273 711.676C943.809 711.393 943.231 711.061 941.635 707.866C940.131 704.856 939.886 701.32 939.885 682.616L939.883 660.866H936.883C934.55 660.866 933.883 660.422 933.883 658.866C933.883 657.31 934.55 656.866 936.883 656.866H939.883V650.533ZM672.841 696.259C665.636 677.336 675.117 659.021 693.742 655.887C705.92 653.838 715.883 658.548 715.883 666.353C715.883 673.7 707.942 680.17 692.485 685.418C682.862 688.685 682.514 689.255 685.763 696.407C691.065 708.081 705.182 710.285 714.169 700.844C717.769 697.062 719.783 696.099 721.176 697.493C721.521 697.838 721.169 699.346 720.394 700.844C716.502 708.371 705.275 713.599 695.23 712.562C685.708 711.58 675.976 704.492 672.841 696.259ZM764.02 657.521C766.42 656.643 769.733 655.761 771.383 655.561C777.471 654.823 785.883 656.683 785.883 658.766C785.883 660.259 781.77 664.866 780.438 664.866C779.722 664.866 777.06 663.947 774.522 662.824C770.671 661.121 769.268 660.954 766.053 661.819C758.983 663.723 758.954 663.828 758.653 688.923L758.383 711.366H752.883H747.383V684.366V657.366L752.788 657.058C756.18 656.865 758.466 657.192 758.925 657.934C759.476 658.826 760.732 658.724 764.02 657.521ZM787.883 661.936C787.883 660.271 795.39 656.925 801.1 656.045C812.118 654.347 821.18 657.337 825.699 664.162L828.383 668.215V689.79V711.366L824.995 711.689C820.291 712.138 816.883 711.12 816.883 709.264C816.883 708.403 816.545 707.873 816.133 708.085C809.388 711.557 806.703 712.279 800.383 712.316C788.604 712.387 781.883 706.972 781.883 697.412C781.883 688.108 785.497 684.857 801.9 679.408C807.471 677.557 812.949 675.216 814.071 674.204C819.025 669.743 818.603 663.482 813.195 661.223C808.21 659.14 803.51 660.419 797.171 665.582C794.168 668.028 791.583 669.879 791.425 669.697C790.576 668.719 787.883 662.817 787.883 661.936ZM962.821 696.417C955.202 679.008 965.022 658.809 982.505 655.934C995.511 653.795 1005.89 658.376 1005.88 666.251C1005.87 674.74 998.252 680.052 974.198 688.345C973.32 688.647 973.278 689.739 974.033 692.559C978.039 707.509 995.313 711.651 1005.11 700.008C1008.2 696.333 1010.88 695.882 1010.88 699.037C1010.88 700.304 1009.02 702.997 1006.4 705.504C993.11 718.237 970.289 713.479 962.821 696.417ZM1029.56 658.001C1031.23 657.308 1034.8 656.376 1037.49 655.931C1040.18 655.487 1043.06 655.252 1043.88 655.408C1044.71 655.564 1047.07 655.976 1049.13 656.324C1053.65 657.086 1054.09 659.381 1050.4 662.851L1047.92 665.184L1043.73 663.297C1038.62 660.993 1033.12 661.013 1029.55 663.348L1026.88 665.096V687.28C1026.88 703.202 1026.54 709.805 1025.68 710.666C1023.84 712.509 1015.23 712.215 1014.49 710.284C1013.69 708.194 1013.72 684.305 1014.54 669.023L1015.19 656.866H1020.45C1023.65 656.866 1025.87 657.336 1026.12 658.064C1026.42 658.986 1027.22 658.971 1029.56 658.001ZM1054.89 662.205C1054.88 660.54 1063.02 656.835 1068.62 655.956C1082.56 653.767 1093.4 659.703 1095.78 670.835C1097.32 678.016 1097.25 709.104 1095.68 710.666C1093.68 712.673 1086.09 712.174 1084.7 709.944C1083.52 708.05 1083.44 708.051 1079.62 709.999C1074.03 712.851 1067.23 713.4 1060.77 711.522C1053.61 709.44 1049.82 705.513 1049.14 699.459C1048.07 689.986 1053.23 684.335 1066.63 680.29C1081.65 675.755 1086.55 671.514 1084.27 665.025C1081.9 658.278 1072.32 658.504 1064.86 665.482C1062.29 667.893 1059.88 669.866 1059.52 669.866C1058.63 669.866 1054.89 663.675 1054.89 662.205ZM1117.4 657.832C1119.04 657.194 1122.41 656.322 1124.88 655.891C1127.36 655.46 1129.98 655.277 1130.72 655.486C1131.45 655.694 1133.27 655.866 1134.77 655.866C1136.27 655.866 1138.33 656.47 1139.34 657.209C1141.1 658.498 1141.08 658.683 1138.79 661.78C1136.23 665.246 1135.74 665.279 1128.26 662.495C1125.17 661.349 1123.25 661.202 1120.66 661.918C1114.02 663.749 1113.95 664.026 1113.65 688.923L1113.38 711.366H1107.88H1102.38L1102.12 684.116L1101.85 656.866H1107.78C1111.08 656.866 1113.87 657.338 1114.07 657.928C1114.32 658.666 1115.34 658.635 1117.4 657.832ZM1169.64 660.038C1172.53 657.99 1178.34 656.096 1183.38 655.563C1194.51 654.386 1205.4 660.43 1207.79 669.115C1208.55 671.871 1208.86 680.047 1208.67 692.366L1208.38 711.366H1202.88C1197.93 711.366 1197.35 711.141 1197.06 709.1L1196.74 706.834L1194.25 708.792C1190.21 711.969 1181.66 713.441 1175.16 712.077C1165.07 709.962 1159.92 703.529 1161.38 694.874C1162.66 687.301 1168.16 683.259 1183.21 678.833C1192.76 676.021 1196.88 672.644 1196.88 667.62C1196.88 658.411 1184.31 657.669 1175.87 666.378C1174.01 668.297 1172.14 669.866 1171.71 669.866C1171.28 669.866 1170.02 668.092 1168.91 665.926L1166.9 661.986L1169.64 660.038ZM726.49 710.284C725.66 708.122 725.717 658.366 726.55 657.533C726.916 657.166 729.568 656.866 732.443 656.866C736.286 656.866 737.83 657.284 738.276 658.447C738.61 659.317 738.883 671.153 738.883 684.748C738.883 702.64 738.552 709.797 737.683 710.666C735.84 712.509 727.231 712.215 726.49 710.284ZM916.116 685.382C915.969 671.091 916.067 658.829 916.334 658.132C916.646 657.321 918.814 656.866 922.368 656.866H927.915L927.649 684.116L927.383 711.366H921.883H916.383L916.116 685.382ZM1144.12 685.382C1143.97 671.091 1144.07 658.829 1144.33 658.132C1144.65 657.321 1146.81 656.866 1150.37 656.866H1155.92L1155.65 684.116L1155.38 711.366H1149.88H1144.38L1144.12 685.382ZM687.1 682.288C700.653 677.507 707.737 667.72 701.883 661.866C696.27 656.253 687.509 662.526 684.425 674.365C681.98 683.754 682.083 684.058 687.1 682.288ZM976.64 682.452C990.287 677.637 997.676 667.659 991.883 661.866C988.677 658.66 983.31 659.571 979.181 664.02C976.233 667.196 974.143 672.422 973.311 678.699L972.625 683.868L976.64 682.452ZM816.883 698.943V688.905C816.883 683.383 816.545 678.88 816.133 678.896C815.721 678.913 814.529 679.422 813.486 680.028C812.443 680.634 808.873 682.194 805.554 683.495C794.998 687.632 792.039 692.749 795.286 701.252C798.392 709.384 806.376 710.138 813.133 702.939L816.883 698.943ZM1064.81 704.943C1069.6 709.736 1077.93 708.016 1082.31 701.33C1084.62 697.814 1084.23 678.398 1081.88 679.884C1081.06 680.407 1077.46 681.814 1073.9 683.011C1070.33 684.208 1066.17 686.43 1064.65 687.95C1062.28 690.315 1061.88 691.525 1061.88 696.366C1061.88 701.282 1062.27 702.401 1064.81 704.943ZM1189.64 705.871C1195.33 702.402 1196.88 698.616 1196.88 688.116C1196.88 683.029 1196.55 678.91 1196.13 678.964C1195.72 679.019 1191.78 680.603 1187.38 682.485C1174.75 687.887 1171.5 693.227 1175.3 702.318C1177.71 708.092 1183.61 709.553 1189.64 705.871ZM821.883 734.374C821.883 725.338 822.265 720.884 823.112 720.037C823.788 719.361 825.026 718.938 825.862 719.098C827.129 719.341 827.429 721.921 827.658 734.512C827.907 748.137 827.761 749.699 826.185 750.304C822.785 751.608 821.883 748.266 821.883 734.374ZM842.883 750.016C841.766 749.848 841.446 720.636 842.55 719.533C844.33 717.752 846.367 719.635 852.368 728.608L858.883 738.351V729.215C858.883 721.701 859.172 719.969 860.51 719.456C864.179 718.048 864.883 720.528 864.883 734.866C864.883 745.689 864.573 748.879 863.427 749.83C861.357 751.548 860.574 750.807 853.609 740.542L847.383 731.366L846.883 740.866C846.39 750.242 846.266 750.524 842.883 750.016ZM879.352 724.866C876.672 724.866 875.287 722.861 876.245 720.366C876.689 719.208 878.621 718.866 884.729 718.866C890.539 718.866 892.968 719.264 893.883 720.366C895.551 722.375 893.546 724.866 890.261 724.866C887.885 724.866 887.883 724.877 887.883 737.259C887.883 748.067 887.663 749.737 886.159 750.313C882.905 751.562 881.883 748.184 881.883 736.175V724.866H879.352ZM905.883 734.926C905.883 726.826 906.183 719.899 906.55 719.533C906.916 719.166 910.461 718.866 914.427 718.866C919.617 718.866 921.987 719.286 922.883 720.366C925.081 723.015 922.357 724.866 916.261 724.866H910.883V728.311C910.883 731.712 910.944 731.76 915.633 732.061C919.952 732.338 920.383 732.593 920.383 734.866C920.383 737.139 919.952 737.394 915.633 737.671C910.944 737.972 910.883 738.02 910.883 741.421V744.866H916.261C922.357 744.866 925.081 746.717 922.883 749.366C922.018 750.409 919.719 750.866 915.342 750.866C911.115 750.866 908.771 751.028 907.474 749.941C905.704 748.457 905.883 744.648 905.883 734.926ZM936.104 735.912C935.951 727.962 936.049 720.875 936.323 720.162C936.659 719.286 938.912 718.866 943.275 718.866C948.76 718.866 950.192 719.255 952.806 721.455C955.359 723.603 955.883 724.772 955.883 728.319C955.883 731.197 955.171 733.501 953.705 735.365L951.528 738.133L953.796 742.409C956.12 746.788 956.282 749.901 954.222 750.587C952.702 751.093 951.29 749.443 948.045 743.366C946.209 739.928 944.752 738.366 943.379 738.366C941.662 738.366 941.313 739.204 940.883 744.366C940.452 749.533 940.105 750.366 938.383 750.366C936.488 750.366 936.368 749.606 936.104 735.912ZM970.383 749.866C968.379 748.202 968.149 720.326 970.133 719.533C972.461 718.601 973.374 719.464 979.383 728.283L985.383 737.088L985.672 729.067C985.972 720.746 987.155 718.266 990.256 719.456C991.653 719.992 991.883 722.094 991.883 734.351C991.883 745.816 991.588 748.866 990.383 749.866C988.328 751.571 987.203 750.493 980.733 740.629L975.383 732.472L975.094 740.579C974.781 749.373 973.302 752.288 970.383 749.866ZM1007.64 734.84C1010.25 727.429 1012.76 720.779 1013.23 720.061C1015.47 716.585 1017.46 719.579 1022.26 733.7C1026.71 746.765 1027 748.173 1025.56 749.614C1023.44 751.738 1021.58 750.141 1019.99 744.821C1018.82 740.924 1018.61 740.765 1015.08 741.059C1011.73 741.338 1011.25 741.758 1009.92 745.59C1008.33 750.205 1006.26 751.669 1004.22 749.627C1003.13 748.545 1003.73 745.96 1007.64 734.84ZM1039.67 744.014C1034.88 736.263 1037.87 723.587 1045.28 720.246C1051.33 717.52 1058.43 720.275 1061.38 726.495C1063.3 730.555 1062.79 732.866 1059.96 732.866C1058.68 732.866 1057.39 731.638 1056.33 729.403C1052.45 721.214 1042.88 725.099 1042.88 734.866C1042.88 740.612 1046.19 744.866 1050.65 744.866C1052.59 744.866 1056.88 741.008 1056.88 739.262C1056.88 737.294 1059.79 734.892 1061.41 735.515C1066.15 737.335 1058.91 749.207 1052.31 750.447C1047.87 751.279 1042.45 748.523 1039.67 744.014ZM1076.79 750.309C1075.74 749.656 1075.54 720.544 1076.58 719.498C1076.97 719.112 1077.98 718.931 1078.83 719.094C1080.14 719.344 1080.43 721.799 1080.66 734.512C1080.9 747.674 1080.73 749.713 1079.32 750.253C1078.43 750.593 1077.29 750.618 1076.79 750.309ZM1094.12 733.801C1094.54 727.323 1097.17 722.962 1102.1 720.529C1106.15 718.533 1108.98 718.461 1113.25 720.245C1123.18 724.393 1125.45 738.501 1117.47 746.477C1112.91 751.041 1108.19 751.736 1102.21 748.726C1095.97 745.587 1093.64 741.278 1094.12 733.801ZM1134.88 734.41C1134.88 726.594 1135.2 719.884 1135.58 719.498C1137.31 717.771 1139.8 719.987 1145.38 728.232L1151.38 737.088L1151.67 729.067C1151.97 720.746 1153.16 718.266 1156.26 719.456C1157.65 719.992 1157.88 722.094 1157.88 734.351C1157.88 745.816 1157.59 748.866 1156.38 749.866C1154.33 751.571 1153.2 750.493 1146.73 740.629L1141.38 732.472L1141.09 740.579C1140.78 749.373 1139.3 752.288 1136.38 749.866C1135.18 748.866 1134.88 745.822 1134.88 734.41ZM1173.64 734.84C1176.25 727.429 1178.76 720.779 1179.23 720.061C1181.47 716.585 1183.46 719.579 1188.26 733.7C1192.71 746.765 1193 748.173 1191.56 749.614C1189.44 751.738 1187.58 750.141 1185.99 744.821C1184.82 740.924 1184.61 740.765 1181.08 741.059C1177.73 741.338 1177.25 741.758 1175.92 745.59C1174.33 750.205 1172.26 751.669 1170.22 749.627C1169.13 748.545 1169.73 745.96 1173.64 734.84ZM1204.92 748.931C1203.55 746.381 1203.58 723.301 1204.95 720.74C1205.54 719.643 1206.78 718.891 1207.7 719.068C1209.15 719.347 1209.42 721.122 1209.66 732.128L1209.94 744.866H1214.79C1220.36 744.866 1223 746.816 1220.88 749.366C1220 750.432 1217.66 750.866 1212.8 750.866C1207.05 750.866 1205.79 750.554 1204.92 748.931ZM945.031 732.673C949.834 732.317 952.059 729.96 950.276 727.116C949.585 726.013 947.645 725.252 945.031 725.059L940.883 724.751V728.866V732.981L945.031 732.673ZM1116.38 734.866C1116.38 730.438 1115.98 729.345 1113.58 727.279C1108.47 722.884 1102.05 724.8 1099.88 731.369C1096.69 741.038 1106.24 748.764 1113.58 742.452C1115.98 740.386 1116.38 739.294 1116.38 734.866ZM671.883 757.866V743.816V729.766L677.633 730.066L683.383 730.366L683.644 771.3C683.849 803.383 683.633 812.407 682.644 813.035C680.901 814.141 673.493 814.071 672.333 812.937C671.747 812.363 669.29 812.554 665.915 813.437C654.975 816.296 645.471 814.293 638.204 807.594C632.216 802.074 629.689 796.839 629.108 788.749C628.446 779.522 630.794 772.86 636.836 766.818C643.407 760.247 650.212 757.866 662.421 757.866H671.883ZM1014.53 732.332C1013.77 734.319 1014.23 735.275 1015.69 734.72C1016.2 734.525 1016.3 733.499 1015.92 732.439C1015.27 730.608 1015.2 730.603 1014.53 732.332ZM1180.53 732.332C1179.77 734.319 1180.23 735.275 1181.69 734.72C1182.2 734.525 1182.3 733.499 1181.92 732.439C1181.27 730.608 1181.2 730.603 1180.53 732.332ZM766.278 743.068C768.21 739.333 775.012 735.124 781.03 733.941C787.433 732.682 790.731 732.744 797.095 734.241C803.241 735.688 807.645 738.082 808.563 740.475C809.119 741.922 805.37 746.866 803.717 746.866C803.268 746.866 800.89 745.331 798.433 743.456C788.332 735.746 774.883 737.297 774.883 746.173C774.883 751.309 779.025 756.109 791.51 765.439C810.32 779.497 814.886 785.288 814.879 795.076C814.875 801.203 812.731 805.399 807.718 809.09C802.079 813.243 797.959 814.366 788.362 814.366C780.169 814.366 778.722 814.062 772.612 811.053C765.301 807.454 764.524 805.941 768.057 802.18C770.788 799.273 771.261 799.289 775.391 802.439C780.368 806.235 788.163 808.866 794.439 808.866C801.949 808.866 804.883 806.111 804.883 799.059C804.883 791.966 802.397 788.985 785.974 776.378C777.326 769.74 770.414 763.604 768.572 760.931C764.798 755.452 763.818 747.826 766.278 743.068ZM688.199 772.652C691.23 766.456 696.437 761.656 702.562 759.409C707.579 757.568 720.031 757.482 724.284 759.259C728.426 760.99 730.884 764.375 730.879 768.339C730.87 775.568 723.339 781.738 707.679 787.342C697.228 791.083 697.103 791.314 701.051 799.63C706.233 810.547 721.85 811.825 730.11 802.008C731.564 800.28 733.458 798.866 734.318 798.866C737.259 798.866 735.925 803.088 731.625 807.387C722.23 816.782 705.509 817.229 695.15 808.363C685.427 800.04 682.402 784.501 688.199 772.652ZM824.54 762.768C825.554 761.757 828.183 760.272 830.383 759.468C835.8 757.489 847.974 757.459 852.651 759.413C857.088 761.266 860.488 764.294 862.709 768.366C864.016 770.762 864.419 775.153 864.709 790.171C864.909 800.514 864.796 810.077 864.459 811.421C863.909 813.612 863.319 813.866 858.77 813.866C854.537 813.866 853.609 813.535 853.173 811.866C852.92 810.898 852.808 810.314 852.469 810.115C851.954 809.812 850.913 810.403 848.047 811.897C842.444 814.818 835.301 815.42 828.772 813.522C821.39 811.376 817.744 807.479 817.129 801.077C816.231 791.727 821.041 786.73 835.428 782.067C850.6 777.149 853.317 775.024 852.693 768.57C852.445 766.005 851.646 765.005 848.689 763.559C843.295 760.923 838.602 762.114 832.731 767.605C830.12 770.048 827.507 771.752 826.926 771.393C826.345 771.033 825.155 769.359 824.283 767.673C822.806 764.817 822.824 764.481 824.54 762.768ZM867.108 788.749C866.172 775.708 872.969 764.748 884.946 759.982C889.938 757.996 891.602 757.863 905.276 758.371C913.468 758.675 920.555 759.163 921.026 759.455C921.498 759.746 921.883 777.957 921.883 799.925V839.866H915.883H909.883V825.799V811.731L907.633 812.452C894.672 816.61 884.235 814.997 876.204 807.594C870.216 802.074 867.689 796.839 867.108 788.749ZM987.883 764.669C987.883 762.948 991.935 760.303 996.877 758.8C998.255 758.381 1002.65 757.999 1006.64 757.952C1015.9 757.842 1021.91 760.435 1025.72 766.191L1028.38 770.215V791.79V813.366L1023.05 813.671C1018.38 813.938 1017.66 813.722 1017.19 811.921C1016.92 810.906 1016.81 810.298 1016.46 810.112C1015.96 809.836 1014.94 810.488 1012.19 812.116C1009.14 813.919 1006.89 814.361 1000.88 814.343C988.143 814.303 981.883 809.369 981.883 799.366C981.883 790.17 986.429 786.132 1002.13 781.391C1006.93 779.938 1012.17 777.656 1013.76 776.319C1019.14 771.791 1018.49 764.881 1012.5 762.903C1007.6 761.287 1002.73 762.835 996.691 767.931C993.983 770.215 991.644 771.922 991.493 771.725C989.298 768.846 987.883 766.081 987.883 764.669ZM1046.9 759.892C1047.42 760.729 1048.78 760.625 1051.99 759.498C1057.58 757.544 1069.84 757.38 1072.36 759.226C1074.16 760.539 1074.14 760.695 1071.92 763.817C1069.44 767.303 1068.9 767.337 1061.26 764.495C1058.17 763.349 1056.25 763.203 1053.66 763.919C1047.02 765.75 1046.95 766.026 1046.65 790.923L1046.38 813.366H1040.88H1035.38V786.366V759.366L1040.79 759.058C1044.08 758.871 1046.47 759.197 1046.9 759.892ZM1070.26 779.042C1072.88 768.814 1078.09 762.753 1087.34 759.192C1091.62 757.541 1104.27 757.581 1108.28 759.259C1114.94 762.042 1116.78 768.742 1112.6 774.968C1109.62 779.398 1102.18 783.789 1091.49 787.419C1081.79 790.712 1081.22 791.683 1084.84 798.78C1088.78 806.497 1095.02 809.672 1103.7 808.37C1107.36 807.821 1109.26 806.751 1112.74 803.271C1116.95 799.06 1118.8 798.119 1120.18 799.493C1121.22 800.54 1118.2 805.383 1114.43 808.691C1107.15 815.079 1093.61 816.506 1084.56 811.839C1076.29 807.57 1071.8 801.281 1069.86 791.275C1068.88 786.203 1068.95 784.157 1070.26 779.042ZM1135.62 760.366C1136.35 761.669 1136.97 761.604 1140.38 759.866C1148.33 755.814 1160.42 757.906 1164.75 764.082C1166.08 765.982 1166.17 765.97 1168.75 763.559C1173.14 759.449 1177.35 757.866 1183.88 757.866C1190.8 757.866 1194.48 759.406 1198.24 763.876C1202.31 768.71 1202.95 773.11 1202.66 794.054L1202.38 813.366H1196.88H1191.38L1190.88 791.366C1190.37 769.404 1189.96 766.831 1186.47 763.934C1184.33 762.164 1178.32 762.352 1175.37 764.28C1169.81 767.925 1169.42 769.602 1168.88 792.318L1168.38 813.366H1162.88H1157.38L1156.88 790.637L1156.38 767.907L1153.66 765.188C1149.46 760.984 1144.52 761.53 1139.67 766.734L1135.88 770.788L1135.87 791.077C1135.86 802.236 1135.48 811.955 1135.02 812.676C1134.47 813.544 1132.53 813.882 1129.29 813.676L1124.38 813.366L1124.12 786.116L1123.85 758.866H1129.32C1133.14 758.866 1135.04 759.318 1135.62 760.366ZM1213.64 762.069C1215.15 761.014 1217.73 759.673 1219.38 759.088C1224.43 757.297 1236.85 757.668 1241.42 759.746C1246.43 762.02 1250.5 766.732 1251.88 771.851C1252.49 774.11 1252.81 783.642 1252.66 794.556L1252.38 813.366L1247.05 813.671C1242.35 813.94 1241.66 813.73 1241.18 811.88C1240.88 810.727 1240.35 809.939 1240.01 810.128C1227.95 816.782 1213.36 815.624 1207.45 807.543C1204.58 803.614 1204.59 795.082 1207.48 791.189C1210.25 787.449 1215.83 784.333 1224.38 781.753C1237.42 777.821 1240.88 775.159 1240.88 769.087C1240.88 760.649 1229.05 759.98 1220.43 767.929C1218.08 770.094 1215.88 771.866 1215.54 771.866C1215.2 771.866 1214.02 770.092 1212.91 767.926L1210.9 763.986L1213.64 762.069ZM934.388 810.691C928.706 806.222 927.929 802.497 927.905 779.616L927.883 758.866H933.883H939.883V779.346C939.883 801.882 940.78 806.587 945.484 808.73C950.858 811.179 958.633 809.009 963.612 803.671C965.75 801.379 965.852 800.429 966.112 780.324L966.383 759.366H972.383H978.383L978.664 784.366C978.819 798.116 978.698 810.379 978.395 811.616C977.917 813.57 977.198 813.866 972.921 813.866C969.072 813.866 967.679 813.413 966.544 811.792L965.092 809.719L961 811.806C952.798 815.99 940.468 815.474 934.388 810.691ZM671.883 766.096L669.391 764.463C666.261 762.412 659.352 761.647 655.266 762.899C650.914 764.233 644.26 771.777 642.807 777.025C640.355 785.882 641.789 797.983 646.002 803.993C650.328 810.163 660.802 811.551 668.258 806.943L671.883 804.702V785.399V766.096ZM701.64 784.452C715.484 779.567 722.657 769.76 716.569 764.04C709.756 757.641 700.215 766.347 698.311 780.699L697.625 785.868L701.64 784.452ZM909.883 766.096L907.199 764.337C904.027 762.259 897.559 761.562 893.469 762.858C891.866 763.365 888.837 765.458 886.738 767.508C876.373 777.629 877.666 802.11 888.883 808.115C893.469 810.57 901.221 810.055 906.222 806.965L909.883 804.702V785.399V766.096ZM1086.1 784.288C1099.65 779.507 1106.74 769.72 1100.88 763.866C1095.27 758.253 1086.51 764.526 1083.43 776.365C1080.98 785.754 1081.08 786.058 1086.1 784.288ZM850.354 803.123C852.61 799.804 852.883 798.4 852.883 790.134C852.883 785.037 852.545 780.919 852.133 780.984C848.936 781.486 834.814 788.153 832.512 790.246C829.822 792.692 829.67 793.243 830.087 799.012C830.461 804.179 830.971 805.545 833.263 807.517C838.278 811.83 845.741 809.912 850.354 803.123ZM1016.88 800.943V790.905C1016.88 785.383 1016.55 780.873 1016.13 780.881C1015.72 780.89 1014.71 781.334 1013.88 781.869C1013.06 782.404 1009.41 783.987 1005.78 785.386C998.924 788.026 995.609 790.732 994.417 794.658C993.268 798.443 994.841 804.551 997.7 807.411C1000 809.715 1000.96 810.004 1004.84 809.568C1008.45 809.161 1010.04 808.281 1013.1 805.004L1016.88 800.943ZM1233.64 807.871C1239.33 804.402 1240.88 800.616 1240.88 790.116C1240.88 785.029 1240.55 780.902 1240.13 780.947C1239.72 780.993 1235.18 782.905 1230.03 785.197C1219.83 789.744 1217.98 791.726 1217.92 798.166C1217.83 808.039 1225.55 812.806 1233.64 807.871Z" fill="#4994CE"/>
<path d="M734.998 146.406C747.81 145.206 783.033 146.811 799.498 149.343C821.749 152.766 843.859 159.797 866.406 170.617C878.263 176.307 903.122 190.609 907.953 194.521L910.401 196.502L892.548 246.88C882.731 274.585 874.244 297.836 873.688 298.552C872.633 299.907 867.513 299.342 865.388 297.636C864.7 297.083 864.07 290.561 863.732 280.502C861.559 215.871 830.05 172.516 776.998 161.157C764.971 158.583 738.6 158.547 727.498 161.091C701.735 166.995 685.386 183.101 681.277 206.624C675.235 241.223 691.586 270.212 732.498 297.432C744.694 305.546 749.252 308.192 780.498 325.3C813.101 343.151 825.57 350.463 841.998 361.364C885.775 390.416 910.924 425.076 918.735 467.122C921.354 481.227 921.041 512.916 918.148 526.493C912.829 551.448 901.854 572.081 885.028 588.758C870.974 602.687 852.578 613.384 829.834 620.852C808.049 628.006 789.232 630.763 762.287 630.75C735.858 630.737 720.731 628.539 698.998 621.555C675.196 613.906 657.75 604.442 637.282 588.078C635.998 587.052 636.159 586.012 638.516 580.12C640.89 574.186 641.171 572.345 640.773 565.301C640.037 552.249 633.576 541.918 622.543 536.153L617.003 533.258L617 490.708C616.999 458.945 617.302 447.855 618.198 446.958C619.852 445.304 625.495 445.449 626.934 447.181C627.584 447.964 629.45 453.701 631.081 459.931C634.759 473.98 641.752 494.778 647.646 509.201C670.749 565.736 707.422 605.714 745.498 615.872C759.656 619.649 787.485 618.631 805.941 613.662C830.63 607.015 847.907 589.278 854.198 564.121C856.065 556.656 856.421 552.419 856.456 537.258C856.492 521.388 856.226 518.321 854.205 511.343C844.258 476.986 816.061 451.775 740.169 409.383C684.684 378.39 654.805 352.91 634.604 319.364C619.358 294.044 614.016 253.805 622.052 224.804C629.668 197.322 653.484 171.522 683.126 158.642C697.656 152.328 714.713 148.305 734.998 146.406Z" fill="#FFB90B"/>
<path d="M432.193 92.317C434.008 90.5081 592.888 90.588 595.366 92.4C596.718 93.389 597.048 94.8212 596.807 98.65L596.493 103.617L590.725 104.333C573.07 106.526 564.442 113.523 560.347 128.972C558.702 135.178 558.562 147.748 558.234 319.117C557.993 445.035 558.221 506.153 558.959 513.886C560.343 528.374 562.83 535.154 569.067 541.44L573.853 546.263L572.423 550.316C571.636 552.545 570.993 556.34 570.993 558.75V563.13L431.493 562.617L431.186 557.789C431.017 555.134 431.358 552.381 431.947 551.672C432.537 550.963 436.043 550.166 439.755 549.898C451.861 549.026 462.066 541.882 465.919 531.584C467.005 528.683 468.384 522.553 468.984 517.963C469.75 512.108 469.981 453.437 469.757 321.617C469.473 154.149 469.267 133.071 467.868 128.617C463.169 113.654 455.933 107.341 440.794 104.998C436.778 104.376 432.931 103.713 432.243 103.524C430.614 103.076 430.574 93.936 432.193 92.317Z" fill="#4994CE"/>
<path d="M276.391 232.216C276.842 231.04 289.673 230.863 359.204 231.079L441.483 231.336V242.248L433.224 243.53C423.208 245.084 416.397 248.366 411.629 253.937C407.576 258.672 405.508 264.19 403.984 274.336C403.269 279.097 403.021 342.505 403.208 472.336L403.483 663.336L406.409 669.114C410.018 676.24 417.212 683.116 424.765 686.656L430.483 689.336L466.983 689.271C500.764 689.211 504.265 689.04 513.983 686.98C539.7 681.527 555.852 668.114 568.952 641.336C574.071 630.871 581.954 609.281 581.998 605.604C582.04 602.126 583.496 601.641 590.09 602.904C593.602 603.577 596.593 604.215 596.739 604.323C597.053 604.56 594.269 628.993 592.979 637.336C592.468 640.637 590.439 656.16 588.471 671.832C586.502 687.504 584.537 700.679 584.103 701.115C583.669 701.549 547.128 701.775 502.899 701.619L422.483 701.336L414.483 698.52C397.522 692.55 382.589 680.129 370.565 661.992C367.044 656.68 359.561 644.011 353.935 633.836C333.921 597.635 326.1 587.071 312.647 578.073C301.709 570.758 293.21 568.336 278.483 568.336C263.948 568.336 256.729 570.443 245.481 577.966C233.972 585.664 226.219 596.103 221.444 610.336C212.965 635.607 223.714 665.382 246.514 679.781C256.476 686.072 266.385 688.991 277.898 689.022C297.456 689.076 307.842 681.986 312.59 665.336C314.002 660.387 314.377 653.525 314.733 626.157C315.109 597.175 315.363 592.905 316.736 592.377C320.325 591 329.202 603.178 346.953 633.836C369.088 672.065 378.163 683.747 394.233 694.696C396.845 696.476 398.983 698.099 398.983 698.302C398.982 698.506 398.71 699.384 398.376 700.254C397.831 701.674 391.184 701.836 333.536 701.836C272.615 701.836 268.895 701.733 261.393 699.837C228.78 691.594 205.94 662.355 206 628.926C206.023 616.183 208.023 607.39 213.393 596.417C227.111 568.385 256.14 552.502 287.288 555.987C294.089 556.748 305.078 559.849 313.259 563.317C314.956 564.036 315.021 557.611 314.728 418.202C314.457 289.143 314.241 271.761 312.855 267.336C308.075 252.084 300.781 246.028 284.145 243.5L276.483 242.336L276.17 237.972C275.998 235.571 276.097 232.981 276.391 232.216Z" fill="#87BF76"/>
<path d="M1.25 74.6259C3.84257 73.5801 307.767 73.9425 308.518 74.9931C309.493 76.569 325.176 205.051 324.583 206.607C323.915 208.348 315.623 208.434 314.242 206.714C313.69 206.027 312.488 200.964 311.57 195.464C304.823 155.025 291.593 124.279 273.57 107.16C265.099 99.1133 259.693 95.6994 250.188 92.3935C236.257 87.5495 228.325 86.9717 175.681 86.9677L126.863 86.9638L127.287 167.214C127.655 236.839 127.932 248.589 129.377 255.964C136.422 291.925 149.269 303.459 182 303.211C214.665 302.964 231.212 293.481 245.279 266.947L248.716 260.464H258.5V358.464L248.287 359.059L246.046 353.761C242.398 345.136 235.25 334.354 230.279 329.978C220.188 321.095 207.47 317.379 183.895 316.422C155.359 315.264 143.25 310.282 130.802 294.58L126.931 289.696L127.261 396.08C127.546 487.937 127.8 503.215 129.125 507.964C133.553 523.84 142.08 530.881 159.161 532.765L165.5 533.464V545.464L84.1104 545.72C23.2296 545.911 2.36881 545.681 1.31348 544.809C0.358486 544.016 0.0021376 542.007 0.203125 538.553L0.5 533.464L6.5 532.882C22.187 531.36 31.7063 524.354 36.2803 510.964L38.5 504.464L38.7783 314.464C38.9643 187.331 38.7145 122.237 38.0225 117.736C35.1094 98.7685 25.7649 89.0081 8.91406 87.329C5.38646 86.9771 1.93854 86.246 1.25 85.704C0.561015 85.1611 2.37506e-05 82.5677 0 79.9247C0 77.0249 0.494069 74.9311 1.25 74.6259Z" fill="#E6255C"/>
<circle cx="604" cy="568" r="19" fill="#E6255C"/>
<path d="M895.626 113.521C899.028 125.795 903.144 129.518 916.685 132.576L924.185 134.27L916.826 135.523C903.843 137.734 896.884 144.195 895.113 155.681C894.753 158.017 894.158 159.931 893.792 159.931C893.426 159.928 892.312 156.766 891.317 152.901C889.505 145.864 886.369 140.92 882.326 138.72C881.148 138.079 877.035 136.789 873.185 135.853C869.335 134.916 866.86 133.923 867.685 133.646C868.51 133.369 872.27 132.357 876.041 131.396C886.366 128.767 889.195 125.473 892.756 111.931L893.939 107.431L895.626 113.521Z" fill="#4994CE"/>
<path d="M931.828 69.041C933.937 59.9271 934.096 59.6117 934.896 62.9306C935.361 64.856 936.845 70.0708 938.195 74.5195C942.648 89.1953 950.259 94.8014 970.845 98.5674L980.146 100.269L970.057 101.961C947.993 105.663 940.299 112.622 935.804 132.944C933.773 142.125 933.686 142.087 931.136 130.931C926.751 111.749 920.855 106.222 900.341 102.066C893.847 100.75 891.912 100.05 893.685 99.6601C916.927 94.5402 921.346 92.4248 926.395 84.0049C928.372 80.7088 930.459 74.9578 931.828 69.041Z" fill="#4994CE"/>
<path d="M876.153 79.1172C876.705 79.1042 877.301 80.8705 878.774 84.6826C879.808 87.3584 885.286 90.9214 888.375 90.9267C892.326 90.9337 891.741 92.6649 887.561 93.334C882.356 94.166 878.075 98.3373 877.098 103.53L876.363 107.431L874.695 102.431C872.86 96.9316 868.3 92.9306 863.869 92.9306C860.472 92.9306 861.73 91.8998 867.445 90.0029C871.785 88.5629 872.354 87.9889 874.185 83.209C875.201 80.5564 875.66 79.1291 876.153 79.1172Z" fill="#4994CE"/>
<path d="M1031.95 0C1033.15 0.0658218 1182.45 317.973 1181.77 318.997C1181.58 319.275 1176.1 321.807 1169.59 324.628C1138.17 338.225 1101.84 360.431 1072.39 384.044C1006 437.27 958.683 504.6 932.568 583C927.239 598.997 921.605 619.082 921.605 622.081C921.605 622.322 922.145 621.474 923.074 619.818C922.305 622.06 921.68 623.917 921.246 625.221C921.212 625.322 921.18 625.42 921.148 625.515C920.714 623.16 921.232 617.098 922.729 606.5C932.618 536.537 955.164 469.527 986.153 418C1003.26 389.564 1018.88 369.505 1041.08 347.5C1062.63 326.134 1084.01 310.241 1107.02 298.471C1113.67 295.072 1119.7 292.102 1120.43 291.871C1121.34 291.582 1105.41 257.337 1069.08 181.476C1040.1 120.989 1016.23 71.3187 1016.02 71.0977C1015.27 70.3177 1002.62 74.2355 996.433 77.1592C992.989 78.7871 987.659 81.8357 984.587 83.9326L979.001 87.7461L971.989 85.9648C962.104 83.4548 956.083 80.3747 952.205 75.8447C949.087 72.2007 944.605 62.5448 944.605 59.4678C944.607 57.9168 959.478 44.5048 970.635 35.9922C983.78 25.9603 1001.18 15.0453 1016.19 7.40527C1024.2 3.33227 1031.29 0 1031.95 0Z" fill="#E6255C"/>
<path d="M1112.8 9.51448e-05C1113.56 0.02964 1152.21 81.5056 1203.75 191.75C1253.04 297.168 1293.31 383.496 1293.25 383.64C1293.17 383.727 1287.93 384.55 1281.61 385.468C1254.81 389.359 1228.93 395.547 1202.11 404.479C1145.47 423.337 1090.94 453.898 1038.11 496.407C999.984 527.075 955.598 573.556 929.167 610.482C925.749 615.256 924.318 617.282 927.016 614.496L923.091 619.136C922.783 618.838 922.634 619.037 922.716 619.578L921.35 621.193C921.071 620.578 920.957 619.329 921.014 617.382L921.863 615.156C921.696 616.035 921.605 616.685 921.605 617.063C921.605 617.733 925.775 610.002 930.87 599.882C942.277 577.223 953.059 559.868 968.526 539.276C1011.12 482.569 1071.49 430.24 1145.73 385.688C1171.36 370.307 1199.87 355.138 1217.61 347.45C1221.18 345.902 1224.46 344.33 1224.91 343.957C1225.35 343.585 1191.66 270.651 1150.04 181.881C1108.43 93.1284 1074.18 19.8039 1073.92 18.9142C1073.58 17.7422 1076.58 15.8757 1085.79 11.5157C1101.4 4.12484 1111.13 -0.0229047 1112.8 9.51448e-05Z" fill="#87BF76"/>
<path d="M1260.86 447.723C1268.43 468.449 1274.5 485.532 1274.36 485.713C1274.21 485.86 1268.46 485.52 1261.59 484.957C1224.06 481.883 1175.1 487.502 1132.9 499.725C1065.62 519.21 992.743 559.513 935.422 608.932C929.006 614.463 923.456 618.688 923.089 618.321C922.722 617.953 922.571 618.272 922.755 619.028C922.844 619.395 922.817 619.769 922.705 620.08L921.423 620.534C921.184 620.166 921.045 619.434 921 618.312L931.132 606.912C930.46 607.831 929.799 608.745 929.149 609.653C923.071 618.145 923.279 617.945 941.819 597.436C974.773 560.982 1019.54 527.199 1065.18 504.353C1099.33 487.255 1137.38 474.454 1174.41 467.609C1189.51 464.819 1211.25 462.178 1219.24 462.163L1224.39 462.153L1221.46 452.403C1219.85 447.041 1217.01 437.559 1215.14 431.334L1211.75 420.015L1216.42 418.01C1222.76 415.287 1236.51 411.361 1242.33 410.612L1247.09 410L1260.86 447.723Z" fill="#4994CE"/>
</svg>
